<?xml version="1.0" encoding="utf-8" standalone="no"?>
<!DOCTYPE svg PUBLIC "-//W3C//DTD SVG 1.1//EN"
  "http://www.w3.org/Graphics/SVG/1.1/DTD/svg11.dtd">
<svg height="345.6pt" version="1.1" viewBox="0 0 460.8 345.6" width="460.8pt" xmlns="http://www.w3.org/2000/svg" xmlns:xlink="http://www.w3.org/1999/xlink">
 <metadata>
  <rdf:RDF xmlns:cc="http://creativecommons.org/ns#" xmlns:dc="http://purl.org/dc/elements/1.1/" xmlns:rdf="http://www.w3.org/1999/02/22-rdf-syntax-ns#">
   <cc:Work>
    <dc:type rdf:resource="http://purl.org/dc/dcmitype/StillImage"/>
    <dc:date>2023-10-25T15:38:19.337130</dc:date>
    <dc:format>image/svg+xml</dc:format>
    <dc:creator>
     <cc:Agent>
      <dc:title>Matplotlib v3.4.3, https://matplotlib.org/</dc:title>
     </cc:Agent>
    </dc:creator>
   </cc:Work>
  </rdf:RDF>
 </metadata>
 <defs>
  <style type="text/css">*{stroke-linecap:butt;stroke-linejoin:round;}</style>
 </defs>
 <g id="figure_1">
  <g id="patch_1">
   <path d="M 0 345.6 
L 460.8 345.6 
L 460.8 0 
L 0 0 
z
" style="fill:none;"/>
  </g>
  <g id="axes_1">
   <g id="patch_2">
    <path d="M 57.6 302.4 
L 414.72 302.4 
L 414.72 41.472 
L 57.6 41.472 
z
" style="fill:#ffffff;"/>
   </g>
   <g id="matplotlib.axis_1">
    <g id="xtick_1">
     <g id="line2d_1">
      <defs>
       <path d="M 0 0 
L 0 3.5 
" id="mf6f3458866" style="stroke:#000000;stroke-width:0.8;"/>
      </defs>
      <g>
       <use style="stroke:#000000;stroke-width:0.8;" x="98.806154" xlink:href="#mf6f3458866" y="302.4"/>
      </g>
     </g>
     <g id="text_1">
      <!-- 10 -->
      <g transform="translate(92.443654 316.998437)scale(0.1 -0.1)">
       <defs>
        <path d="M 794 531 
L 1825 531 
L 1825 4091 
L 703 3866 
L 703 4441 
L 1819 4666 
L 2450 4666 
L 2450 531 
L 3481 531 
L 3481 0 
L 794 0 
L 794 531 
z
" id="DejaVuSans-31" transform="scale(0.015625)"/>
        <path d="M 2034 4250 
Q 1547 4250 1301 3770 
Q 1056 3291 1056 2328 
Q 1056 1369 1301 889 
Q 1547 409 2034 409 
Q 2525 409 2770 889 
Q 3016 1369 3016 2328 
Q 3016 3291 2770 3770 
Q 2525 4250 2034 4250 
z
M 2034 4750 
Q 2819 4750 3233 4129 
Q 3647 3509 3647 2328 
Q 3647 1150 3233 529 
Q 2819 -91 2034 -91 
Q 1250 -91 836 529 
Q 422 1150 422 2328 
Q 422 3509 836 4129 
Q 1250 4750 2034 4750 
z
" id="DejaVuSans-30" transform="scale(0.015625)"/>
       </defs>
       <use xlink:href="#DejaVuSans-31"/>
       <use x="63.623047" xlink:href="#DejaVuSans-30"/>
      </g>
     </g>
    </g>
    <g id="xtick_2">
     <g id="line2d_2">
      <g>
       <use style="stroke:#000000;stroke-width:0.8;" x="148.753007" xlink:href="#mf6f3458866" y="302.4"/>
      </g>
     </g>
     <g id="text_2">
      <!-- 20 -->
      <g transform="translate(142.390507 316.998437)scale(0.1 -0.1)">
       <defs>
        <path d="M 1228 531 
L 3431 531 
L 3431 0 
L 469 0 
L 469 531 
Q 828 903 1448 1529 
Q 2069 2156 2228 2338 
Q 2531 2678 2651 2914 
Q 2772 3150 2772 3378 
Q 2772 3750 2511 3984 
Q 2250 4219 1831 4219 
Q 1534 4219 1204 4116 
Q 875 4013 500 3803 
L 500 4441 
Q 881 4594 1212 4672 
Q 1544 4750 1819 4750 
Q 2544 4750 2975 4387 
Q 3406 4025 3406 3419 
Q 3406 3131 3298 2873 
Q 3191 2616 2906 2266 
Q 2828 2175 2409 1742 
Q 1991 1309 1228 531 
z
" id="DejaVuSans-32" transform="scale(0.015625)"/>
       </defs>
       <use xlink:href="#DejaVuSans-32"/>
       <use x="63.623047" xlink:href="#DejaVuSans-30"/>
      </g>
     </g>
    </g>
    <g id="xtick_3">
     <g id="line2d_3">
      <g>
       <use style="stroke:#000000;stroke-width:0.8;" x="198.69986" xlink:href="#mf6f3458866" y="302.4"/>
      </g>
     </g>
     <g id="text_3">
      <!-- 30 -->
      <g transform="translate(192.33736 316.998437)scale(0.1 -0.1)">
       <defs>
        <path d="M 2597 2516 
Q 3050 2419 3304 2112 
Q 3559 1806 3559 1356 
Q 3559 666 3084 287 
Q 2609 -91 1734 -91 
Q 1441 -91 1130 -33 
Q 819 25 488 141 
L 488 750 
Q 750 597 1062 519 
Q 1375 441 1716 441 
Q 2309 441 2620 675 
Q 2931 909 2931 1356 
Q 2931 1769 2642 2001 
Q 2353 2234 1838 2234 
L 1294 2234 
L 1294 2753 
L 1863 2753 
Q 2328 2753 2575 2939 
Q 2822 3125 2822 3475 
Q 2822 3834 2567 4026 
Q 2313 4219 1838 4219 
Q 1578 4219 1281 4162 
Q 984 4106 628 3988 
L 628 4550 
Q 988 4650 1302 4700 
Q 1616 4750 1894 4750 
Q 2613 4750 3031 4423 
Q 3450 4097 3450 3541 
Q 3450 3153 3228 2886 
Q 3006 2619 2597 2516 
z
" id="DejaVuSans-33" transform="scale(0.015625)"/>
       </defs>
       <use xlink:href="#DejaVuSans-33"/>
       <use x="63.623047" xlink:href="#DejaVuSans-30"/>
      </g>
     </g>
    </g>
    <g id="xtick_4">
     <g id="line2d_4">
      <g>
       <use style="stroke:#000000;stroke-width:0.8;" x="248.646713" xlink:href="#mf6f3458866" y="302.4"/>
      </g>
     </g>
     <g id="text_4">
      <!-- 40 -->
      <g transform="translate(242.284213 316.998437)scale(0.1 -0.1)">
       <defs>
        <path d="M 2419 4116 
L 825 1625 
L 2419 1625 
L 2419 4116 
z
M 2253 4666 
L 3047 4666 
L 3047 1625 
L 3713 1625 
L 3713 1100 
L 3047 1100 
L 3047 0 
L 2419 0 
L 2419 1100 
L 313 1100 
L 313 1709 
L 2253 4666 
z
" id="DejaVuSans-34" transform="scale(0.015625)"/>
       </defs>
       <use xlink:href="#DejaVuSans-34"/>
       <use x="63.623047" xlink:href="#DejaVuSans-30"/>
      </g>
     </g>
    </g>
    <g id="xtick_5">
     <g id="line2d_5">
      <g>
       <use style="stroke:#000000;stroke-width:0.8;" x="298.593566" xlink:href="#mf6f3458866" y="302.4"/>
      </g>
     </g>
     <g id="text_5">
      <!-- 50 -->
      <g transform="translate(292.231066 316.998437)scale(0.1 -0.1)">
       <defs>
        <path d="M 691 4666 
L 3169 4666 
L 3169 4134 
L 1269 4134 
L 1269 2991 
Q 1406 3038 1543 3061 
Q 1681 3084 1819 3084 
Q 2600 3084 3056 2656 
Q 3513 2228 3513 1497 
Q 3513 744 3044 326 
Q 2575 -91 1722 -91 
Q 1428 -91 1123 -41 
Q 819 9 494 109 
L 494 744 
Q 775 591 1075 516 
Q 1375 441 1709 441 
Q 2250 441 2565 725 
Q 2881 1009 2881 1497 
Q 2881 1984 2565 2268 
Q 2250 2553 1709 2553 
Q 1456 2553 1204 2497 
Q 953 2441 691 2322 
L 691 4666 
z
" id="DejaVuSans-35" transform="scale(0.015625)"/>
       </defs>
       <use xlink:href="#DejaVuSans-35"/>
       <use x="63.623047" xlink:href="#DejaVuSans-30"/>
      </g>
     </g>
    </g>
    <g id="xtick_6">
     <g id="line2d_6">
      <g>
       <use style="stroke:#000000;stroke-width:0.8;" x="348.54042" xlink:href="#mf6f3458866" y="302.4"/>
      </g>
     </g>
     <g id="text_6">
      <!-- 60 -->
      <g transform="translate(342.17792 316.998437)scale(0.1 -0.1)">
       <defs>
        <path d="M 2113 2584 
Q 1688 2584 1439 2293 
Q 1191 2003 1191 1497 
Q 1191 994 1439 701 
Q 1688 409 2113 409 
Q 2538 409 2786 701 
Q 3034 994 3034 1497 
Q 3034 2003 2786 2293 
Q 2538 2584 2113 2584 
z
M 3366 4563 
L 3366 3988 
Q 3128 4100 2886 4159 
Q 2644 4219 2406 4219 
Q 1781 4219 1451 3797 
Q 1122 3375 1075 2522 
Q 1259 2794 1537 2939 
Q 1816 3084 2150 3084 
Q 2853 3084 3261 2657 
Q 3669 2231 3669 1497 
Q 3669 778 3244 343 
Q 2819 -91 2113 -91 
Q 1303 -91 875 529 
Q 447 1150 447 2328 
Q 447 3434 972 4092 
Q 1497 4750 2381 4750 
Q 2619 4750 2861 4703 
Q 3103 4656 3366 4563 
z
" id="DejaVuSans-36" transform="scale(0.015625)"/>
       </defs>
       <use xlink:href="#DejaVuSans-36"/>
       <use x="63.623047" xlink:href="#DejaVuSans-30"/>
      </g>
     </g>
    </g>
    <g id="xtick_7">
     <g id="line2d_7">
      <g>
       <use style="stroke:#000000;stroke-width:0.8;" x="398.487273" xlink:href="#mf6f3458866" y="302.4"/>
      </g>
     </g>
     <g id="text_7">
      <!-- 70 -->
      <g transform="translate(392.124773 316.998437)scale(0.1 -0.1)">
       <defs>
        <path d="M 525 4666 
L 3525 4666 
L 3525 4397 
L 1831 0 
L 1172 0 
L 2766 4134 
L 525 4134 
L 525 4666 
z
" id="DejaVuSans-37" transform="scale(0.015625)"/>
       </defs>
       <use xlink:href="#DejaVuSans-37"/>
       <use x="63.623047" xlink:href="#DejaVuSans-30"/>
      </g>
     </g>
    </g>
    <g id="text_8">
     <!-- Budget (%) -->
     <g transform="translate(207.934219 330.676562)scale(0.1 -0.1)">
      <defs>
       <path d="M 1259 2228 
L 1259 519 
L 2272 519 
Q 2781 519 3026 730 
Q 3272 941 3272 1375 
Q 3272 1813 3026 2020 
Q 2781 2228 2272 2228 
L 1259 2228 
z
M 1259 4147 
L 1259 2741 
L 2194 2741 
Q 2656 2741 2882 2914 
Q 3109 3088 3109 3444 
Q 3109 3797 2882 3972 
Q 2656 4147 2194 4147 
L 1259 4147 
z
M 628 4666 
L 2241 4666 
Q 2963 4666 3353 4366 
Q 3744 4066 3744 3513 
Q 3744 3084 3544 2831 
Q 3344 2578 2956 2516 
Q 3422 2416 3680 2098 
Q 3938 1781 3938 1306 
Q 3938 681 3513 340 
Q 3088 0 2303 0 
L 628 0 
L 628 4666 
z
" id="DejaVuSans-42" transform="scale(0.015625)"/>
       <path d="M 544 1381 
L 544 3500 
L 1119 3500 
L 1119 1403 
Q 1119 906 1312 657 
Q 1506 409 1894 409 
Q 2359 409 2629 706 
Q 2900 1003 2900 1516 
L 2900 3500 
L 3475 3500 
L 3475 0 
L 2900 0 
L 2900 538 
Q 2691 219 2414 64 
Q 2138 -91 1772 -91 
Q 1169 -91 856 284 
Q 544 659 544 1381 
z
M 1991 3584 
L 1991 3584 
z
" id="DejaVuSans-75" transform="scale(0.015625)"/>
       <path d="M 2906 2969 
L 2906 4863 
L 3481 4863 
L 3481 0 
L 2906 0 
L 2906 525 
Q 2725 213 2448 61 
Q 2172 -91 1784 -91 
Q 1150 -91 751 415 
Q 353 922 353 1747 
Q 353 2572 751 3078 
Q 1150 3584 1784 3584 
Q 2172 3584 2448 3432 
Q 2725 3281 2906 2969 
z
M 947 1747 
Q 947 1113 1208 752 
Q 1469 391 1925 391 
Q 2381 391 2643 752 
Q 2906 1113 2906 1747 
Q 2906 2381 2643 2742 
Q 2381 3103 1925 3103 
Q 1469 3103 1208 2742 
Q 947 2381 947 1747 
z
" id="DejaVuSans-64" transform="scale(0.015625)"/>
       <path d="M 2906 1791 
Q 2906 2416 2648 2759 
Q 2391 3103 1925 3103 
Q 1463 3103 1205 2759 
Q 947 2416 947 1791 
Q 947 1169 1205 825 
Q 1463 481 1925 481 
Q 2391 481 2648 825 
Q 2906 1169 2906 1791 
z
M 3481 434 
Q 3481 -459 3084 -895 
Q 2688 -1331 1869 -1331 
Q 1566 -1331 1297 -1286 
Q 1028 -1241 775 -1147 
L 775 -588 
Q 1028 -725 1275 -790 
Q 1522 -856 1778 -856 
Q 2344 -856 2625 -561 
Q 2906 -266 2906 331 
L 2906 616 
Q 2728 306 2450 153 
Q 2172 0 1784 0 
Q 1141 0 747 490 
Q 353 981 353 1791 
Q 353 2603 747 3093 
Q 1141 3584 1784 3584 
Q 2172 3584 2450 3431 
Q 2728 3278 2906 2969 
L 2906 3500 
L 3481 3500 
L 3481 434 
z
" id="DejaVuSans-67" transform="scale(0.015625)"/>
       <path d="M 3597 1894 
L 3597 1613 
L 953 1613 
Q 991 1019 1311 708 
Q 1631 397 2203 397 
Q 2534 397 2845 478 
Q 3156 559 3463 722 
L 3463 178 
Q 3153 47 2828 -22 
Q 2503 -91 2169 -91 
Q 1331 -91 842 396 
Q 353 884 353 1716 
Q 353 2575 817 3079 
Q 1281 3584 2069 3584 
Q 2775 3584 3186 3129 
Q 3597 2675 3597 1894 
z
M 3022 2063 
Q 3016 2534 2758 2815 
Q 2500 3097 2075 3097 
Q 1594 3097 1305 2825 
Q 1016 2553 972 2059 
L 3022 2063 
z
" id="DejaVuSans-65" transform="scale(0.015625)"/>
       <path d="M 1172 4494 
L 1172 3500 
L 2356 3500 
L 2356 3053 
L 1172 3053 
L 1172 1153 
Q 1172 725 1289 603 
Q 1406 481 1766 481 
L 2356 481 
L 2356 0 
L 1766 0 
Q 1100 0 847 248 
Q 594 497 594 1153 
L 594 3053 
L 172 3053 
L 172 3500 
L 594 3500 
L 594 4494 
L 1172 4494 
z
" id="DejaVuSans-74" transform="scale(0.015625)"/>
       <path id="DejaVuSans-20" transform="scale(0.015625)"/>
       <path d="M 1984 4856 
Q 1566 4138 1362 3434 
Q 1159 2731 1159 2009 
Q 1159 1288 1364 580 
Q 1569 -128 1984 -844 
L 1484 -844 
Q 1016 -109 783 600 
Q 550 1309 550 2009 
Q 550 2706 781 3412 
Q 1013 4119 1484 4856 
L 1984 4856 
z
" id="DejaVuSans-28" transform="scale(0.015625)"/>
       <path d="M 4653 2053 
Q 4381 2053 4226 1822 
Q 4072 1591 4072 1178 
Q 4072 772 4226 539 
Q 4381 306 4653 306 
Q 4919 306 5073 539 
Q 5228 772 5228 1178 
Q 5228 1588 5073 1820 
Q 4919 2053 4653 2053 
z
M 4653 2450 
Q 5147 2450 5437 2106 
Q 5728 1763 5728 1178 
Q 5728 594 5436 251 
Q 5144 -91 4653 -91 
Q 4153 -91 3862 251 
Q 3572 594 3572 1178 
Q 3572 1766 3864 2108 
Q 4156 2450 4653 2450 
z
M 1428 4353 
Q 1159 4353 1004 4120 
Q 850 3888 850 3481 
Q 850 3069 1003 2837 
Q 1156 2606 1428 2606 
Q 1700 2606 1854 2837 
Q 2009 3069 2009 3481 
Q 2009 3884 1853 4118 
Q 1697 4353 1428 4353 
z
M 4250 4750 
L 4750 4750 
L 1831 -91 
L 1331 -91 
L 4250 4750 
z
M 1428 4750 
Q 1922 4750 2215 4408 
Q 2509 4066 2509 3481 
Q 2509 2891 2217 2550 
Q 1925 2209 1428 2209 
Q 931 2209 642 2551 
Q 353 2894 353 3481 
Q 353 4063 643 4406 
Q 934 4750 1428 4750 
z
" id="DejaVuSans-25" transform="scale(0.015625)"/>
       <path d="M 513 4856 
L 1013 4856 
Q 1481 4119 1714 3412 
Q 1947 2706 1947 2009 
Q 1947 1309 1714 600 
Q 1481 -109 1013 -844 
L 513 -844 
Q 928 -128 1133 580 
Q 1338 1288 1338 2009 
Q 1338 2731 1133 3434 
Q 928 4138 513 4856 
z
" id="DejaVuSans-29" transform="scale(0.015625)"/>
      </defs>
      <use xlink:href="#DejaVuSans-42"/>
      <use x="68.603516" xlink:href="#DejaVuSans-75"/>
      <use x="131.982422" xlink:href="#DejaVuSans-64"/>
      <use x="195.458984" xlink:href="#DejaVuSans-67"/>
      <use x="258.935547" xlink:href="#DejaVuSans-65"/>
      <use x="320.458984" xlink:href="#DejaVuSans-74"/>
      <use x="359.667969" xlink:href="#DejaVuSans-20"/>
      <use x="391.455078" xlink:href="#DejaVuSans-28"/>
      <use x="430.46875" xlink:href="#DejaVuSans-25"/>
      <use x="525.488281" xlink:href="#DejaVuSans-29"/>
     </g>
    </g>
   </g>
   <g id="matplotlib.axis_2">
    <g id="ytick_1">
     <g id="line2d_8">
      <defs>
       <path d="M 0 0 
L -3.5 0 
" id="mc5593d17b6" style="stroke:#000000;stroke-width:0.8;"/>
      </defs>
      <g>
       <use style="stroke:#000000;stroke-width:0.8;" x="57.6" xlink:href="#mc5593d17b6" y="291.521633"/>
      </g>
     </g>
     <g id="text_9">
      <!-- $\mathdefault{10^{2}}$ -->
      <g transform="translate(33 295.320852)scale(0.1 -0.1)">
       <use transform="translate(0 0.765625)" xlink:href="#DejaVuSans-31"/>
       <use transform="translate(63.623047 0.765625)" xlink:href="#DejaVuSans-30"/>
       <use transform="translate(128.203125 39.046875)scale(0.7)" xlink:href="#DejaVuSans-32"/>
      </g>
     </g>
    </g>
    <g id="ytick_2">
     <g id="line2d_9">
      <g>
       <use style="stroke:#000000;stroke-width:0.8;" x="57.6" xlink:href="#mc5593d17b6" y="125.768729"/>
      </g>
     </g>
     <g id="text_10">
      <!-- $\mathdefault{10^{3}}$ -->
      <g transform="translate(33 129.567948)scale(0.1 -0.1)">
       <use transform="translate(0 0.765625)" xlink:href="#DejaVuSans-31"/>
       <use transform="translate(63.623047 0.765625)" xlink:href="#DejaVuSans-30"/>
       <use transform="translate(128.203125 39.046875)scale(0.7)" xlink:href="#DejaVuSans-33"/>
      </g>
     </g>
    </g>
    <g id="ytick_3">
     <g id="line2d_10">
      <defs>
       <path d="M 0 0 
L -2 0 
" id="m80b4e53655" style="stroke:#000000;stroke-width:0.6;"/>
      </defs>
      <g>
       <use style="stroke:#000000;stroke-width:0.6;" x="57.6" xlink:href="#m80b4e53655" y="299.10607"/>
      </g>
     </g>
    </g>
    <g id="ytick_4">
     <g id="line2d_11">
      <g>
       <use style="stroke:#000000;stroke-width:0.6;" x="57.6" xlink:href="#m80b4e53655" y="241.625037"/>
      </g>
     </g>
    </g>
    <g id="ytick_5">
     <g id="line2d_12">
      <g>
       <use style="stroke:#000000;stroke-width:0.6;" x="57.6" xlink:href="#m80b4e53655" y="212.437399"/>
      </g>
     </g>
    </g>
    <g id="ytick_6">
     <g id="line2d_13">
      <g>
       <use style="stroke:#000000;stroke-width:0.6;" x="57.6" xlink:href="#m80b4e53655" y="191.728441"/>
      </g>
     </g>
    </g>
    <g id="ytick_7">
     <g id="line2d_14">
      <g>
       <use style="stroke:#000000;stroke-width:0.6;" x="57.6" xlink:href="#m80b4e53655" y="175.665325"/>
      </g>
     </g>
    </g>
    <g id="ytick_8">
     <g id="line2d_15">
      <g>
       <use style="stroke:#000000;stroke-width:0.6;" x="57.6" xlink:href="#m80b4e53655" y="162.540803"/>
      </g>
     </g>
    </g>
    <g id="ytick_9">
     <g id="line2d_16">
      <g>
       <use style="stroke:#000000;stroke-width:0.6;" x="57.6" xlink:href="#m80b4e53655" y="151.444179"/>
      </g>
     </g>
    </g>
    <g id="ytick_10">
     <g id="line2d_17">
      <g>
       <use style="stroke:#000000;stroke-width:0.6;" x="57.6" xlink:href="#m80b4e53655" y="141.831845"/>
      </g>
     </g>
    </g>
    <g id="ytick_11">
     <g id="line2d_18">
      <g>
       <use style="stroke:#000000;stroke-width:0.6;" x="57.6" xlink:href="#m80b4e53655" y="133.353166"/>
      </g>
     </g>
    </g>
    <g id="ytick_12">
     <g id="line2d_19">
      <g>
       <use style="stroke:#000000;stroke-width:0.6;" x="57.6" xlink:href="#m80b4e53655" y="75.872133"/>
      </g>
     </g>
    </g>
    <g id="ytick_13">
     <g id="line2d_20">
      <g>
       <use style="stroke:#000000;stroke-width:0.6;" x="57.6" xlink:href="#m80b4e53655" y="46.684495"/>
      </g>
     </g>
    </g>
    <g id="text_11">
     <!-- MSE -->
     <g transform="translate(26.920313 182.583656)rotate(-90)scale(0.1 -0.1)">
      <defs>
       <path d="M 628 4666 
L 1569 4666 
L 2759 1491 
L 3956 4666 
L 4897 4666 
L 4897 0 
L 4281 0 
L 4281 4097 
L 3078 897 
L 2444 897 
L 1241 4097 
L 1241 0 
L 628 0 
L 628 4666 
z
" id="DejaVuSans-4d" transform="scale(0.015625)"/>
       <path d="M 3425 4513 
L 3425 3897 
Q 3066 4069 2747 4153 
Q 2428 4238 2131 4238 
Q 1616 4238 1336 4038 
Q 1056 3838 1056 3469 
Q 1056 3159 1242 3001 
Q 1428 2844 1947 2747 
L 2328 2669 
Q 3034 2534 3370 2195 
Q 3706 1856 3706 1288 
Q 3706 609 3251 259 
Q 2797 -91 1919 -91 
Q 1588 -91 1214 -16 
Q 841 59 441 206 
L 441 856 
Q 825 641 1194 531 
Q 1563 422 1919 422 
Q 2459 422 2753 634 
Q 3047 847 3047 1241 
Q 3047 1584 2836 1778 
Q 2625 1972 2144 2069 
L 1759 2144 
Q 1053 2284 737 2584 
Q 422 2884 422 3419 
Q 422 4038 858 4394 
Q 1294 4750 2059 4750 
Q 2388 4750 2728 4690 
Q 3069 4631 3425 4513 
z
" id="DejaVuSans-53" transform="scale(0.015625)"/>
       <path d="M 628 4666 
L 3578 4666 
L 3578 4134 
L 1259 4134 
L 1259 2753 
L 3481 2753 
L 3481 2222 
L 1259 2222 
L 1259 531 
L 3634 531 
L 3634 0 
L 628 0 
L 628 4666 
z
" id="DejaVuSans-45" transform="scale(0.015625)"/>
      </defs>
      <use xlink:href="#DejaVuSans-4d"/>
      <use x="86.279297" xlink:href="#DejaVuSans-53"/>
      <use x="149.755859" xlink:href="#DejaVuSans-45"/>
     </g>
    </g>
   </g>
   <g id="LineCollection_1">
    <path clip-path="url(#pfe7ff075b9)" d="M 73.832727 290.539636 
L 73.832727 290.539636 
" style="fill:none;stroke:#2ca02c;stroke-width:1.5;"/>
    <path clip-path="url(#pfe7ff075b9)" d="M 83.822098 290.539636 
L 83.822098 290.539636 
" style="fill:none;stroke:#2ca02c;stroke-width:1.5;"/>
    <path clip-path="url(#pfe7ff075b9)" d="M 98.806154 290.539636 
L 98.806154 290.539636 
" style="fill:none;stroke:#2ca02c;stroke-width:1.5;"/>
    <path clip-path="url(#pfe7ff075b9)" d="M 123.77958 290.539636 
L 123.77958 290.539636 
" style="fill:none;stroke:#2ca02c;stroke-width:1.5;"/>
    <path clip-path="url(#pfe7ff075b9)" d="M 148.753007 290.539636 
L 148.753007 290.539636 
" style="fill:none;stroke:#2ca02c;stroke-width:1.5;"/>
    <path clip-path="url(#pfe7ff075b9)" d="M 173.726434 290.539636 
L 173.726434 290.539636 
" style="fill:none;stroke:#2ca02c;stroke-width:1.5;"/>
    <path clip-path="url(#pfe7ff075b9)" d="M 198.69986 290.539636 
L 198.69986 290.539636 
" style="fill:none;stroke:#2ca02c;stroke-width:1.5;"/>
    <path clip-path="url(#pfe7ff075b9)" d="M 248.646713 290.539636 
L 248.646713 290.539636 
" style="fill:none;stroke:#2ca02c;stroke-width:1.5;"/>
    <path clip-path="url(#pfe7ff075b9)" d="M 298.593566 290.539636 
L 298.593566 290.539636 
" style="fill:none;stroke:#2ca02c;stroke-width:1.5;"/>
    <path clip-path="url(#pfe7ff075b9)" d="M 348.54042 290.539636 
L 348.54042 290.539636 
" style="fill:none;stroke:#2ca02c;stroke-width:1.5;"/>
    <path clip-path="url(#pfe7ff075b9)" d="M 398.487273 290.539636 
L 398.487273 290.539636 
" style="fill:none;stroke:#2ca02c;stroke-width:1.5;"/>
   </g>
   <g id="LineCollection_2">
    <path clip-path="url(#pfe7ff075b9)" d="M 73.832727 146.797718 
L 73.832727 53.332364 
" style="fill:none;stroke:#9467bd;stroke-width:1.5;"/>
    <path clip-path="url(#pfe7ff075b9)" d="M 83.822098 210.161956 
L 83.822098 183.565352 
" style="fill:none;stroke:#9467bd;stroke-width:1.5;"/>
    <path clip-path="url(#pfe7ff075b9)" d="M 98.806154 251.77771 
L 98.806154 234.909419 
" style="fill:none;stroke:#9467bd;stroke-width:1.5;"/>
    <path clip-path="url(#pfe7ff075b9)" d="M 123.77958 269.470847 
L 123.77958 252.911757 
" style="fill:none;stroke:#9467bd;stroke-width:1.5;"/>
    <path clip-path="url(#pfe7ff075b9)" d="M 148.753007 279.994399 
L 148.753007 269.341298 
" style="fill:none;stroke:#9467bd;stroke-width:1.5;"/>
    <path clip-path="url(#pfe7ff075b9)" d="M 173.726434 282.047161 
L 173.726434 275.124988 
" style="fill:none;stroke:#9467bd;stroke-width:1.5;"/>
    <path clip-path="url(#pfe7ff075b9)" d="M 198.69986 285.176765 
L 198.69986 282.671037 
" style="fill:none;stroke:#9467bd;stroke-width:1.5;"/>
    <path clip-path="url(#pfe7ff075b9)" d="M 248.646713 285.963021 
L 248.646713 281.86907 
" style="fill:none;stroke:#9467bd;stroke-width:1.5;"/>
    <path clip-path="url(#pfe7ff075b9)" d="M 298.593566 288.445461 
L 298.593566 285.947222 
" style="fill:none;stroke:#9467bd;stroke-width:1.5;"/>
    <path clip-path="url(#pfe7ff075b9)" d="M 348.54042 289.352197 
L 348.54042 288.451167 
" style="fill:none;stroke:#9467bd;stroke-width:1.5;"/>
    <path clip-path="url(#pfe7ff075b9)" d="M 398.487273 289.900307 
L 398.487273 288.740907 
" style="fill:none;stroke:#9467bd;stroke-width:1.5;"/>
   </g>
   <g id="LineCollection_3">
    <path clip-path="url(#pfe7ff075b9)" d="M 73.832727 248.834214 
L 73.832727 219.896075 
" style="fill:none;stroke:#1f77b4;stroke-width:1.5;"/>
    <path clip-path="url(#pfe7ff075b9)" d="M 83.822098 261.003148 
L 83.822098 248.075852 
" style="fill:none;stroke:#1f77b4;stroke-width:1.5;"/>
    <path clip-path="url(#pfe7ff075b9)" d="M 98.806154 275.00238 
L 98.806154 270.658034 
" style="fill:none;stroke:#1f77b4;stroke-width:1.5;"/>
    <path clip-path="url(#pfe7ff075b9)" d="M 123.77958 280.244893 
L 123.77958 277.892133 
" style="fill:none;stroke:#1f77b4;stroke-width:1.5;"/>
    <path clip-path="url(#pfe7ff075b9)" d="M 148.753007 284.184349 
L 148.753007 280.917302 
" style="fill:none;stroke:#1f77b4;stroke-width:1.5;"/>
    <path clip-path="url(#pfe7ff075b9)" d="M 173.726434 284.57075 
L 173.726434 283.209272 
" style="fill:none;stroke:#1f77b4;stroke-width:1.5;"/>
    <path clip-path="url(#pfe7ff075b9)" d="M 198.69986 286.176935 
L 198.69986 285.072428 
" style="fill:none;stroke:#1f77b4;stroke-width:1.5;"/>
    <path clip-path="url(#pfe7ff075b9)" d="M 248.646713 287.671132 
L 248.646713 282.940448 
" style="fill:none;stroke:#1f77b4;stroke-width:1.5;"/>
    <path clip-path="url(#pfe7ff075b9)" d="M 298.593566 287.926923 
L 298.593566 287.034419 
" style="fill:none;stroke:#1f77b4;stroke-width:1.5;"/>
    <path clip-path="url(#pfe7ff075b9)" d="M 348.54042 288.572004 
L 348.54042 286.115322 
" style="fill:none;stroke:#1f77b4;stroke-width:1.5;"/>
    <path clip-path="url(#pfe7ff075b9)" d="M 398.487273 287.536474 
L 398.487273 286.735764 
" style="fill:none;stroke:#1f77b4;stroke-width:1.5;"/>
   </g>
   <g id="LineCollection_4">
    <path clip-path="url(#pfe7ff075b9)" d="M 73.832727 212.077898 
L 73.832727 183.44271 
" style="fill:none;stroke:#d62728;stroke-width:1.5;"/>
    <path clip-path="url(#pfe7ff075b9)" d="M 83.822098 243.537799 
L 83.822098 213.185078 
" style="fill:none;stroke:#d62728;stroke-width:1.5;"/>
    <path clip-path="url(#pfe7ff075b9)" d="M 98.806154 265.790621 
L 98.806154 248.279848 
" style="fill:none;stroke:#d62728;stroke-width:1.5;"/>
    <path clip-path="url(#pfe7ff075b9)" d="M 123.77958 276.475584 
L 123.77958 262.207495 
" style="fill:none;stroke:#d62728;stroke-width:1.5;"/>
    <path clip-path="url(#pfe7ff075b9)" d="M 148.753007 279.672624 
L 148.753007 276.186814 
" style="fill:none;stroke:#d62728;stroke-width:1.5;"/>
    <path clip-path="url(#pfe7ff075b9)" d="M 173.726434 284.854699 
L 173.726434 274.096517 
" style="fill:none;stroke:#d62728;stroke-width:1.5;"/>
    <path clip-path="url(#pfe7ff075b9)" d="M 198.69986 283.860934 
L 198.69986 276.054392 
" style="fill:none;stroke:#d62728;stroke-width:1.5;"/>
    <path clip-path="url(#pfe7ff075b9)" d="M 248.646713 285.9678 
L 248.646713 284.868994 
" style="fill:none;stroke:#d62728;stroke-width:1.5;"/>
    <path clip-path="url(#pfe7ff075b9)" d="M 298.593566 285.392194 
L 298.593566 283.135501 
" style="fill:none;stroke:#d62728;stroke-width:1.5;"/>
    <path clip-path="url(#pfe7ff075b9)" d="M 348.54042 287.503621 
L 348.54042 283.59 
" style="fill:none;stroke:#d62728;stroke-width:1.5;"/>
    <path clip-path="url(#pfe7ff075b9)" d="M 398.487273 286.42168 
L 398.487273 282.295747 
" style="fill:none;stroke:#d62728;stroke-width:1.5;"/>
   </g>
   <g id="LineCollection_5">
    <path clip-path="url(#pfe7ff075b9)" d="M 73.832727 239.046531 
L 73.832727 205.069156 
" style="fill:none;stroke:#ff7f0e;stroke-width:1.5;"/>
    <path clip-path="url(#pfe7ff075b9)" d="M 83.822098 260.843605 
L 83.822098 250.585925 
" style="fill:none;stroke:#ff7f0e;stroke-width:1.5;"/>
    <path clip-path="url(#pfe7ff075b9)" d="M 98.806154 270.915885 
L 98.806154 260.958065 
" style="fill:none;stroke:#ff7f0e;stroke-width:1.5;"/>
    <path clip-path="url(#pfe7ff075b9)" d="M 123.77958 279.985179 
L 123.77958 274.716914 
" style="fill:none;stroke:#ff7f0e;stroke-width:1.5;"/>
    <path clip-path="url(#pfe7ff075b9)" d="M 148.753007 283.423649 
L 148.753007 281.998496 
" style="fill:none;stroke:#ff7f0e;stroke-width:1.5;"/>
    <path clip-path="url(#pfe7ff075b9)" d="M 173.726434 284.473646 
L 173.726434 283.205054 
" style="fill:none;stroke:#ff7f0e;stroke-width:1.5;"/>
    <path clip-path="url(#pfe7ff075b9)" d="M 198.69986 286.295969 
L 198.69986 284.482839 
" style="fill:none;stroke:#ff7f0e;stroke-width:1.5;"/>
    <path clip-path="url(#pfe7ff075b9)" d="M 248.646713 287.673601 
L 248.646713 287.077401 
" style="fill:none;stroke:#ff7f0e;stroke-width:1.5;"/>
    <path clip-path="url(#pfe7ff075b9)" d="M 298.593566 288.478706 
L 298.593566 287.636333 
" style="fill:none;stroke:#ff7f0e;stroke-width:1.5;"/>
    <path clip-path="url(#pfe7ff075b9)" d="M 348.54042 289.100198 
L 348.54042 286.190459 
" style="fill:none;stroke:#ff7f0e;stroke-width:1.5;"/>
    <path clip-path="url(#pfe7ff075b9)" d="M 398.487273 289.324039 
L 398.487273 289.029798 
" style="fill:none;stroke:#ff7f0e;stroke-width:1.5;"/>
   </g>
   <g id="line2d_21">
    <path clip-path="url(#pfe7ff075b9)" d="M 73.832727 290.539636 
L 83.822098 290.539636 
L 98.806154 290.539636 
L 123.77958 290.539636 
L 148.753007 290.539636 
L 173.726434 290.539636 
L 198.69986 290.539636 
L 248.646713 290.539636 
L 298.593566 290.539636 
L 348.54042 290.539636 
L 398.487273 290.539636 
" style="fill:none;stroke:#2ca02c;stroke-linecap:square;stroke-width:1.5;"/>
   </g>
   <g id="line2d_22">
    <path clip-path="url(#pfe7ff075b9)" d="M 73.832727 85.854993 
L 83.822098 195.642242 
L 98.806154 242.8506 
L 123.77958 260.716205 
L 148.753007 274.47096 
L 173.726434 278.502902 
L 198.69986 283.912999 
L 248.646713 283.886946 
L 298.593566 287.185504 
L 348.54042 288.900272 
L 398.487273 289.318273 
" style="fill:none;stroke:#9467bd;stroke-linecap:square;stroke-width:1.5;"/>
   </g>
   <g id="line2d_23">
    <path clip-path="url(#pfe7ff075b9)" d="M 73.832727 232.920693 
L 83.822098 254.249701 
L 98.806154 272.797439 
L 123.77958 279.058901 
L 148.753007 282.532293 
L 173.726434 283.886792 
L 198.69986 285.622563 
L 248.646713 285.266936 
L 298.593566 287.479288 
L 348.54042 287.333184 
L 398.487273 287.135006 
" style="fill:none;stroke:#1f77b4;stroke-linecap:square;stroke-width:1.5;"/>
   </g>
   <g id="line2d_24">
    <path clip-path="url(#pfe7ff075b9)" d="M 73.832727 196.345743 
L 83.822098 226.773373 
L 98.806154 256.504096 
L 123.77958 268.988611 
L 148.753007 277.908622 
L 173.726434 279.274819 
L 198.69986 279.851891 
L 248.646713 285.416301 
L 298.593566 284.255005 
L 348.54042 285.520217 
L 398.487273 284.329157 
" style="fill:none;stroke:#d62728;stroke-linecap:square;stroke-width:1.5;"/>
   </g>
   <g id="line2d_25">
    <path clip-path="url(#pfe7ff075b9)" d="M 73.832727 220.071505 
L 83.822098 255.532209 
L 98.806154 265.764928 
L 123.77958 277.302863 
L 148.753007 282.707546 
L 173.726434 283.836556 
L 198.69986 285.383696 
L 248.646713 287.374884 
L 298.593566 288.056288 
L 348.54042 287.630628 
L 398.487273 289.176768 
" style="fill:none;stroke:#ff7f0e;stroke-linecap:square;stroke-width:1.5;"/>
   </g>
   <g id="patch_3">
    <path d="M 57.6 302.4 
L 57.6 41.472 
" style="fill:none;stroke:#000000;stroke-linecap:square;stroke-linejoin:miter;stroke-width:0.8;"/>
   </g>
   <g id="patch_4">
    <path d="M 414.72 302.4 
L 414.72 41.472 
" style="fill:none;stroke:#000000;stroke-linecap:square;stroke-linejoin:miter;stroke-width:0.8;"/>
   </g>
   <g id="patch_5">
    <path d="M 57.6 302.4 
L 414.72 302.4 
" style="fill:none;stroke:#000000;stroke-linecap:square;stroke-linejoin:miter;stroke-width:0.8;"/>
   </g>
   <g id="patch_6">
    <path d="M 57.6 41.472 
L 414.72 41.472 
" style="fill:none;stroke:#000000;stroke-linecap:square;stroke-linejoin:miter;stroke-width:0.8;"/>
   </g>
   <g id="legend_1">
    <g id="patch_7">
     <path d="M 149.82 122.906375 
L 407.72 122.906375 
Q 409.72 122.906375 409.72 120.906375 
L 409.72 48.472 
Q 409.72 46.472 407.72 46.472 
L 149.82 46.472 
Q 147.82 46.472 147.82 48.472 
L 147.82 120.906375 
Q 147.82 122.906375 149.82 122.906375 
z
" style="fill:#ffffff;opacity:0.8;stroke:#cccccc;stroke-linejoin:miter;"/>
    </g>
    <g id="LineCollection_6">
     <path d="M 161.82 59.570437 
L 161.82 49.570437 
" style="fill:none;stroke:#2ca02c;stroke-width:1.5;"/>
    </g>
    <g id="line2d_26">
     <path d="M 151.82 54.570437 
L 171.82 54.570437 
" style="fill:none;stroke:#2ca02c;stroke-linecap:square;stroke-width:1.5;"/>
    </g>
    <g id="line2d_27"/>
    <g id="text_12">
     <!-- MSE with full $AX$ -->
     <g transform="translate(179.82 58.070437)scale(0.1 -0.1)">
      <defs>
       <path d="M 269 3500 
L 844 3500 
L 1563 769 
L 2278 3500 
L 2956 3500 
L 3675 769 
L 4391 3500 
L 4966 3500 
L 4050 0 
L 3372 0 
L 2619 2869 
L 1863 0 
L 1184 0 
L 269 3500 
z
" id="DejaVuSans-77" transform="scale(0.015625)"/>
       <path d="M 603 3500 
L 1178 3500 
L 1178 0 
L 603 0 
L 603 3500 
z
M 603 4863 
L 1178 4863 
L 1178 4134 
L 603 4134 
L 603 4863 
z
" id="DejaVuSans-69" transform="scale(0.015625)"/>
       <path d="M 3513 2113 
L 3513 0 
L 2938 0 
L 2938 2094 
Q 2938 2591 2744 2837 
Q 2550 3084 2163 3084 
Q 1697 3084 1428 2787 
Q 1159 2491 1159 1978 
L 1159 0 
L 581 0 
L 581 4863 
L 1159 4863 
L 1159 2956 
Q 1366 3272 1645 3428 
Q 1925 3584 2291 3584 
Q 2894 3584 3203 3211 
Q 3513 2838 3513 2113 
z
" id="DejaVuSans-68" transform="scale(0.015625)"/>
       <path d="M 2375 4863 
L 2375 4384 
L 1825 4384 
Q 1516 4384 1395 4259 
Q 1275 4134 1275 3809 
L 1275 3500 
L 2222 3500 
L 2222 3053 
L 1275 3053 
L 1275 0 
L 697 0 
L 697 3053 
L 147 3053 
L 147 3500 
L 697 3500 
L 697 3744 
Q 697 4328 969 4595 
Q 1241 4863 1831 4863 
L 2375 4863 
z
" id="DejaVuSans-66" transform="scale(0.015625)"/>
       <path d="M 603 4863 
L 1178 4863 
L 1178 0 
L 603 0 
L 603 4863 
z
" id="DejaVuSans-6c" transform="scale(0.015625)"/>
       <path d="M 2356 4666 
L 3072 4666 
L 3938 0 
L 3278 0 
L 3084 1197 
L 984 1197 
L 325 0 
L -341 0 
L 2356 4666 
z
M 2584 4044 
L 1275 1722 
L 2988 1722 
L 2584 4044 
z
" id="DejaVuSans-Oblique-41" transform="scale(0.015625)"/>
       <path d="M 878 4666 
L 1516 4666 
L 2316 2981 
L 3763 4666 
L 4500 4666 
L 2578 2438 
L 3738 0 
L 3103 0 
L 2163 1966 
L 459 0 
L -275 0 
L 1906 2509 
L 878 4666 
z
" id="DejaVuSans-Oblique-58" transform="scale(0.015625)"/>
      </defs>
      <use transform="translate(0 0.015625)" xlink:href="#DejaVuSans-4d"/>
      <use transform="translate(86.279297 0.015625)" xlink:href="#DejaVuSans-53"/>
      <use transform="translate(149.755859 0.015625)" xlink:href="#DejaVuSans-45"/>
      <use transform="translate(212.939453 0.015625)" xlink:href="#DejaVuSans-20"/>
      <use transform="translate(244.726562 0.015625)" xlink:href="#DejaVuSans-77"/>
      <use transform="translate(326.513672 0.015625)" xlink:href="#DejaVuSans-69"/>
      <use transform="translate(354.296875 0.015625)" xlink:href="#DejaVuSans-74"/>
      <use transform="translate(393.505859 0.015625)" xlink:href="#DejaVuSans-68"/>
      <use transform="translate(456.884766 0.015625)" xlink:href="#DejaVuSans-20"/>
      <use transform="translate(488.671875 0.015625)" xlink:href="#DejaVuSans-66"/>
      <use transform="translate(523.876953 0.015625)" xlink:href="#DejaVuSans-75"/>
      <use transform="translate(587.255859 0.015625)" xlink:href="#DejaVuSans-6c"/>
      <use transform="translate(615.039062 0.015625)" xlink:href="#DejaVuSans-6c"/>
      <use transform="translate(642.822266 0.015625)" xlink:href="#DejaVuSans-20"/>
      <use transform="translate(674.609375 0.015625)" xlink:href="#DejaVuSans-Oblique-41"/>
      <use transform="translate(743.017578 0.015625)" xlink:href="#DejaVuSans-Oblique-58"/>
     </g>
    </g>
    <g id="LineCollection_7">
     <path d="M 161.82 74.250125 
L 161.82 64.250125 
" style="fill:none;stroke:#9467bd;stroke-width:1.5;"/>
    </g>
    <g id="line2d_28">
     <path d="M 151.82 69.250125 
L 171.82 69.250125 
" style="fill:none;stroke:#9467bd;stroke-linecap:square;stroke-width:1.5;"/>
    </g>
    <g id="line2d_29"/>
    <g id="text_13">
     <!-- MSE with uniformly sampled $AX$ -->
     <g transform="translate(179.82 72.750125)scale(0.1 -0.1)">
      <defs>
       <path d="M 3513 2113 
L 3513 0 
L 2938 0 
L 2938 2094 
Q 2938 2591 2744 2837 
Q 2550 3084 2163 3084 
Q 1697 3084 1428 2787 
Q 1159 2491 1159 1978 
L 1159 0 
L 581 0 
L 581 3500 
L 1159 3500 
L 1159 2956 
Q 1366 3272 1645 3428 
Q 1925 3584 2291 3584 
Q 2894 3584 3203 3211 
Q 3513 2838 3513 2113 
z
" id="DejaVuSans-6e" transform="scale(0.015625)"/>
       <path d="M 1959 3097 
Q 1497 3097 1228 2736 
Q 959 2375 959 1747 
Q 959 1119 1226 758 
Q 1494 397 1959 397 
Q 2419 397 2687 759 
Q 2956 1122 2956 1747 
Q 2956 2369 2687 2733 
Q 2419 3097 1959 3097 
z
M 1959 3584 
Q 2709 3584 3137 3096 
Q 3566 2609 3566 1747 
Q 3566 888 3137 398 
Q 2709 -91 1959 -91 
Q 1206 -91 779 398 
Q 353 888 353 1747 
Q 353 2609 779 3096 
Q 1206 3584 1959 3584 
z
" id="DejaVuSans-6f" transform="scale(0.015625)"/>
       <path d="M 2631 2963 
Q 2534 3019 2420 3045 
Q 2306 3072 2169 3072 
Q 1681 3072 1420 2755 
Q 1159 2438 1159 1844 
L 1159 0 
L 581 0 
L 581 3500 
L 1159 3500 
L 1159 2956 
Q 1341 3275 1631 3429 
Q 1922 3584 2338 3584 
Q 2397 3584 2469 3576 
Q 2541 3569 2628 3553 
L 2631 2963 
z
" id="DejaVuSans-72" transform="scale(0.015625)"/>
       <path d="M 3328 2828 
Q 3544 3216 3844 3400 
Q 4144 3584 4550 3584 
Q 5097 3584 5394 3201 
Q 5691 2819 5691 2113 
L 5691 0 
L 5113 0 
L 5113 2094 
Q 5113 2597 4934 2840 
Q 4756 3084 4391 3084 
Q 3944 3084 3684 2787 
Q 3425 2491 3425 1978 
L 3425 0 
L 2847 0 
L 2847 2094 
Q 2847 2600 2669 2842 
Q 2491 3084 2119 3084 
Q 1678 3084 1418 2786 
Q 1159 2488 1159 1978 
L 1159 0 
L 581 0 
L 581 3500 
L 1159 3500 
L 1159 2956 
Q 1356 3278 1631 3431 
Q 1906 3584 2284 3584 
Q 2666 3584 2933 3390 
Q 3200 3197 3328 2828 
z
" id="DejaVuSans-6d" transform="scale(0.015625)"/>
       <path d="M 2059 -325 
Q 1816 -950 1584 -1140 
Q 1353 -1331 966 -1331 
L 506 -1331 
L 506 -850 
L 844 -850 
Q 1081 -850 1212 -737 
Q 1344 -625 1503 -206 
L 1606 56 
L 191 3500 
L 800 3500 
L 1894 763 
L 2988 3500 
L 3597 3500 
L 2059 -325 
z
" id="DejaVuSans-79" transform="scale(0.015625)"/>
       <path d="M 2834 3397 
L 2834 2853 
Q 2591 2978 2328 3040 
Q 2066 3103 1784 3103 
Q 1356 3103 1142 2972 
Q 928 2841 928 2578 
Q 928 2378 1081 2264 
Q 1234 2150 1697 2047 
L 1894 2003 
Q 2506 1872 2764 1633 
Q 3022 1394 3022 966 
Q 3022 478 2636 193 
Q 2250 -91 1575 -91 
Q 1294 -91 989 -36 
Q 684 19 347 128 
L 347 722 
Q 666 556 975 473 
Q 1284 391 1588 391 
Q 1994 391 2212 530 
Q 2431 669 2431 922 
Q 2431 1156 2273 1281 
Q 2116 1406 1581 1522 
L 1381 1569 
Q 847 1681 609 1914 
Q 372 2147 372 2553 
Q 372 3047 722 3315 
Q 1072 3584 1716 3584 
Q 2034 3584 2315 3537 
Q 2597 3491 2834 3397 
z
" id="DejaVuSans-73" transform="scale(0.015625)"/>
       <path d="M 2194 1759 
Q 1497 1759 1228 1600 
Q 959 1441 959 1056 
Q 959 750 1161 570 
Q 1363 391 1709 391 
Q 2188 391 2477 730 
Q 2766 1069 2766 1631 
L 2766 1759 
L 2194 1759 
z
M 3341 1997 
L 3341 0 
L 2766 0 
L 2766 531 
Q 2569 213 2275 61 
Q 1981 -91 1556 -91 
Q 1019 -91 701 211 
Q 384 513 384 1019 
Q 384 1609 779 1909 
Q 1175 2209 1959 2209 
L 2766 2209 
L 2766 2266 
Q 2766 2663 2505 2880 
Q 2244 3097 1772 3097 
Q 1472 3097 1187 3025 
Q 903 2953 641 2809 
L 641 3341 
Q 956 3463 1253 3523 
Q 1550 3584 1831 3584 
Q 2591 3584 2966 3190 
Q 3341 2797 3341 1997 
z
" id="DejaVuSans-61" transform="scale(0.015625)"/>
       <path d="M 1159 525 
L 1159 -1331 
L 581 -1331 
L 581 3500 
L 1159 3500 
L 1159 2969 
Q 1341 3281 1617 3432 
Q 1894 3584 2278 3584 
Q 2916 3584 3314 3078 
Q 3713 2572 3713 1747 
Q 3713 922 3314 415 
Q 2916 -91 2278 -91 
Q 1894 -91 1617 61 
Q 1341 213 1159 525 
z
M 3116 1747 
Q 3116 2381 2855 2742 
Q 2594 3103 2138 3103 
Q 1681 3103 1420 2742 
Q 1159 2381 1159 1747 
Q 1159 1113 1420 752 
Q 1681 391 2138 391 
Q 2594 391 2855 752 
Q 3116 1113 3116 1747 
z
" id="DejaVuSans-70" transform="scale(0.015625)"/>
      </defs>
      <use transform="translate(0 0.015625)" xlink:href="#DejaVuSans-4d"/>
      <use transform="translate(86.279297 0.015625)" xlink:href="#DejaVuSans-53"/>
      <use transform="translate(149.755859 0.015625)" xlink:href="#DejaVuSans-45"/>
      <use transform="translate(212.939453 0.015625)" xlink:href="#DejaVuSans-20"/>
      <use transform="translate(244.726562 0.015625)" xlink:href="#DejaVuSans-77"/>
      <use transform="translate(326.513672 0.015625)" xlink:href="#DejaVuSans-69"/>
      <use transform="translate(354.296875 0.015625)" xlink:href="#DejaVuSans-74"/>
      <use transform="translate(393.505859 0.015625)" xlink:href="#DejaVuSans-68"/>
      <use transform="translate(456.884766 0.015625)" xlink:href="#DejaVuSans-20"/>
      <use transform="translate(488.671875 0.015625)" xlink:href="#DejaVuSans-75"/>
      <use transform="translate(552.050781 0.015625)" xlink:href="#DejaVuSans-6e"/>
      <use transform="translate(615.429688 0.015625)" xlink:href="#DejaVuSans-69"/>
      <use transform="translate(643.212891 0.015625)" xlink:href="#DejaVuSans-66"/>
      <use transform="translate(678.417969 0.015625)" xlink:href="#DejaVuSans-6f"/>
      <use transform="translate(739.599609 0.015625)" xlink:href="#DejaVuSans-72"/>
      <use transform="translate(780.712891 0.015625)" xlink:href="#DejaVuSans-6d"/>
      <use transform="translate(878.125 0.015625)" xlink:href="#DejaVuSans-6c"/>
      <use transform="translate(905.908203 0.015625)" xlink:href="#DejaVuSans-79"/>
      <use transform="translate(965.087891 0.015625)" xlink:href="#DejaVuSans-20"/>
      <use transform="translate(996.875 0.015625)" xlink:href="#DejaVuSans-73"/>
      <use transform="translate(1048.974609 0.015625)" xlink:href="#DejaVuSans-61"/>
      <use transform="translate(1110.253906 0.015625)" xlink:href="#DejaVuSans-6d"/>
      <use transform="translate(1207.666016 0.015625)" xlink:href="#DejaVuSans-70"/>
      <use transform="translate(1271.142578 0.015625)" xlink:href="#DejaVuSans-6c"/>
      <use transform="translate(1298.925781 0.015625)" xlink:href="#DejaVuSans-65"/>
      <use transform="translate(1360.449219 0.015625)" xlink:href="#DejaVuSans-64"/>
      <use transform="translate(1423.925781 0.015625)" xlink:href="#DejaVuSans-20"/>
      <use transform="translate(1455.712891 0.015625)" xlink:href="#DejaVuSans-Oblique-41"/>
      <use transform="translate(1524.121094 0.015625)" xlink:href="#DejaVuSans-Oblique-58"/>
     </g>
    </g>
    <g id="LineCollection_8">
     <path d="M 161.82 88.950125 
L 161.82 78.950125 
" style="fill:none;stroke:#1f77b4;stroke-width:1.5;"/>
    </g>
    <g id="line2d_30">
     <path d="M 151.82 83.950125 
L 171.82 83.950125 
" style="fill:none;stroke:#1f77b4;stroke-linecap:square;stroke-width:1.5;"/>
    </g>
    <g id="line2d_31"/>
    <g id="text_14">
     <!-- MSE via exact leverage score sampling of $AX$ -->
     <g transform="translate(179.82 87.450125)scale(0.1 -0.1)">
      <defs>
       <path d="M 191 3500 
L 800 3500 
L 1894 563 
L 2988 3500 
L 3597 3500 
L 2284 0 
L 1503 0 
L 191 3500 
z
" id="DejaVuSans-76" transform="scale(0.015625)"/>
       <path d="M 3513 3500 
L 2247 1797 
L 3578 0 
L 2900 0 
L 1881 1375 
L 863 0 
L 184 0 
L 1544 1831 
L 300 3500 
L 978 3500 
L 1906 2253 
L 2834 3500 
L 3513 3500 
z
" id="DejaVuSans-78" transform="scale(0.015625)"/>
       <path d="M 3122 3366 
L 3122 2828 
Q 2878 2963 2633 3030 
Q 2388 3097 2138 3097 
Q 1578 3097 1268 2742 
Q 959 2388 959 1747 
Q 959 1106 1268 751 
Q 1578 397 2138 397 
Q 2388 397 2633 464 
Q 2878 531 3122 666 
L 3122 134 
Q 2881 22 2623 -34 
Q 2366 -91 2075 -91 
Q 1284 -91 818 406 
Q 353 903 353 1747 
Q 353 2603 823 3093 
Q 1294 3584 2113 3584 
Q 2378 3584 2631 3529 
Q 2884 3475 3122 3366 
z
" id="DejaVuSans-63" transform="scale(0.015625)"/>
      </defs>
      <use transform="translate(0 0.015625)" xlink:href="#DejaVuSans-4d"/>
      <use transform="translate(86.279297 0.015625)" xlink:href="#DejaVuSans-53"/>
      <use transform="translate(149.755859 0.015625)" xlink:href="#DejaVuSans-45"/>
      <use transform="translate(212.939453 0.015625)" xlink:href="#DejaVuSans-20"/>
      <use transform="translate(244.726562 0.015625)" xlink:href="#DejaVuSans-76"/>
      <use transform="translate(303.90625 0.015625)" xlink:href="#DejaVuSans-69"/>
      <use transform="translate(331.689453 0.015625)" xlink:href="#DejaVuSans-61"/>
      <use transform="translate(392.96875 0.015625)" xlink:href="#DejaVuSans-20"/>
      <use transform="translate(424.755859 0.015625)" xlink:href="#DejaVuSans-65"/>
      <use transform="translate(486.279297 0.015625)" xlink:href="#DejaVuSans-78"/>
      <use transform="translate(545.458984 0.015625)" xlink:href="#DejaVuSans-61"/>
      <use transform="translate(606.738281 0.015625)" xlink:href="#DejaVuSans-63"/>
      <use transform="translate(661.71875 0.015625)" xlink:href="#DejaVuSans-74"/>
      <use transform="translate(700.927734 0.015625)" xlink:href="#DejaVuSans-20"/>
      <use transform="translate(732.714844 0.015625)" xlink:href="#DejaVuSans-6c"/>
      <use transform="translate(760.498047 0.015625)" xlink:href="#DejaVuSans-65"/>
      <use transform="translate(822.021484 0.015625)" xlink:href="#DejaVuSans-76"/>
      <use transform="translate(881.201172 0.015625)" xlink:href="#DejaVuSans-65"/>
      <use transform="translate(942.724609 0.015625)" xlink:href="#DejaVuSans-72"/>
      <use transform="translate(983.837891 0.015625)" xlink:href="#DejaVuSans-61"/>
      <use transform="translate(1045.117188 0.015625)" xlink:href="#DejaVuSans-67"/>
      <use transform="translate(1108.59375 0.015625)" xlink:href="#DejaVuSans-65"/>
      <use transform="translate(1170.117188 0.015625)" xlink:href="#DejaVuSans-20"/>
      <use transform="translate(1201.904297 0.015625)" xlink:href="#DejaVuSans-73"/>
      <use transform="translate(1254.003906 0.015625)" xlink:href="#DejaVuSans-63"/>
      <use transform="translate(1308.984375 0.015625)" xlink:href="#DejaVuSans-6f"/>
      <use transform="translate(1370.166016 0.015625)" xlink:href="#DejaVuSans-72"/>
      <use transform="translate(1411.279297 0.015625)" xlink:href="#DejaVuSans-65"/>
      <use transform="translate(1472.802734 0.015625)" xlink:href="#DejaVuSans-20"/>
      <use transform="translate(1504.589844 0.015625)" xlink:href="#DejaVuSans-73"/>
      <use transform="translate(1556.689453 0.015625)" xlink:href="#DejaVuSans-61"/>
      <use transform="translate(1617.96875 0.015625)" xlink:href="#DejaVuSans-6d"/>
      <use transform="translate(1715.380859 0.015625)" xlink:href="#DejaVuSans-70"/>
      <use transform="translate(1778.857422 0.015625)" xlink:href="#DejaVuSans-6c"/>
      <use transform="translate(1806.640625 0.015625)" xlink:href="#DejaVuSans-69"/>
      <use transform="translate(1834.423828 0.015625)" xlink:href="#DejaVuSans-6e"/>
      <use transform="translate(1897.802734 0.015625)" xlink:href="#DejaVuSans-67"/>
      <use transform="translate(1961.279297 0.015625)" xlink:href="#DejaVuSans-20"/>
      <use transform="translate(1993.066406 0.015625)" xlink:href="#DejaVuSans-6f"/>
      <use transform="translate(2054.248047 0.015625)" xlink:href="#DejaVuSans-66"/>
      <use transform="translate(2089.453125 0.015625)" xlink:href="#DejaVuSans-20"/>
      <use transform="translate(2121.240234 0.015625)" xlink:href="#DejaVuSans-Oblique-41"/>
      <use transform="translate(2189.648438 0.015625)" xlink:href="#DejaVuSans-Oblique-58"/>
     </g>
    </g>
    <g id="LineCollection_9">
     <path d="M 161.82 103.648562 
L 161.82 93.648562 
" style="fill:none;stroke:#d62728;stroke-width:1.5;"/>
    </g>
    <g id="line2d_32">
     <path d="M 151.82 98.648562 
L 171.82 98.648562 
" style="fill:none;stroke:#d62728;stroke-linecap:square;stroke-width:1.5;"/>
    </g>
    <g id="line2d_33"/>
    <g id="text_15">
     <!-- MSE via Algorithm 1 -->
     <g transform="translate(179.82 102.148562)scale(0.1 -0.1)">
      <defs>
       <path d="M 2188 4044 
L 1331 1722 
L 3047 1722 
L 2188 4044 
z
M 1831 4666 
L 2547 4666 
L 4325 0 
L 3669 0 
L 3244 1197 
L 1141 1197 
L 716 0 
L 50 0 
L 1831 4666 
z
" id="DejaVuSans-41" transform="scale(0.015625)"/>
      </defs>
      <use xlink:href="#DejaVuSans-4d"/>
      <use x="86.279297" xlink:href="#DejaVuSans-53"/>
      <use x="149.755859" xlink:href="#DejaVuSans-45"/>
      <use x="212.939453" xlink:href="#DejaVuSans-20"/>
      <use x="244.726562" xlink:href="#DejaVuSans-76"/>
      <use x="303.90625" xlink:href="#DejaVuSans-69"/>
      <use x="331.689453" xlink:href="#DejaVuSans-61"/>
      <use x="392.96875" xlink:href="#DejaVuSans-20"/>
      <use x="424.755859" xlink:href="#DejaVuSans-41"/>
      <use x="493.164062" xlink:href="#DejaVuSans-6c"/>
      <use x="520.947266" xlink:href="#DejaVuSans-67"/>
      <use x="584.423828" xlink:href="#DejaVuSans-6f"/>
      <use x="645.605469" xlink:href="#DejaVuSans-72"/>
      <use x="686.71875" xlink:href="#DejaVuSans-69"/>
      <use x="714.501953" xlink:href="#DejaVuSans-74"/>
      <use x="753.710938" xlink:href="#DejaVuSans-68"/>
      <use x="817.089844" xlink:href="#DejaVuSans-6d"/>
      <use x="914.501953" xlink:href="#DejaVuSans-20"/>
      <use x="946.289062" xlink:href="#DejaVuSans-31"/>
     </g>
    </g>
    <g id="LineCollection_10">
     <path d="M 161.82 118.326687 
L 161.82 108.326687 
" style="fill:none;stroke:#ff7f0e;stroke-width:1.5;"/>
    </g>
    <g id="line2d_34">
     <path d="M 151.82 113.326687 
L 171.82 113.326687 
" style="fill:none;stroke:#ff7f0e;stroke-linecap:square;stroke-width:1.5;"/>
    </g>
    <g id="line2d_35"/>
    <g id="text_16">
     <!-- MSE via Algorithm 2 -->
     <g transform="translate(179.82 116.826687)scale(0.1 -0.1)">
      <use xlink:href="#DejaVuSans-4d"/>
      <use x="86.279297" xlink:href="#DejaVuSans-53"/>
      <use x="149.755859" xlink:href="#DejaVuSans-45"/>
      <use x="212.939453" xlink:href="#DejaVuSans-20"/>
      <use x="244.726562" xlink:href="#DejaVuSans-76"/>
      <use x="303.90625" xlink:href="#DejaVuSans-69"/>
      <use x="331.689453" xlink:href="#DejaVuSans-61"/>
      <use x="392.96875" xlink:href="#DejaVuSans-20"/>
      <use x="424.755859" xlink:href="#DejaVuSans-41"/>
      <use x="493.164062" xlink:href="#DejaVuSans-6c"/>
      <use x="520.947266" xlink:href="#DejaVuSans-67"/>
      <use x="584.423828" xlink:href="#DejaVuSans-6f"/>
      <use x="645.605469" xlink:href="#DejaVuSans-72"/>
      <use x="686.71875" xlink:href="#DejaVuSans-69"/>
      <use x="714.501953" xlink:href="#DejaVuSans-74"/>
      <use x="753.710938" xlink:href="#DejaVuSans-68"/>
      <use x="817.089844" xlink:href="#DejaVuSans-6d"/>
      <use x="914.501953" xlink:href="#DejaVuSans-20"/>
      <use x="946.289062" xlink:href="#DejaVuSans-32"/>
     </g>
    </g>
   </g>
  </g>
 </g>
 <defs>
  <clipPath id="pfe7ff075b9">
   <rect height="260.928" width="357.12" x="57.6" y="41.472"/>
  </clipPath>
 </defs>
</svg>
