<?xml version="1.0" encoding="utf-8" standalone="no"?>
<!DOCTYPE svg PUBLIC "-//W3C//DTD SVG 1.1//EN"
  "http://www.w3.org/Graphics/SVG/1.1/DTD/svg11.dtd">
<svg height="345.6pt" version="1.1" viewBox="0 0 460.8 345.6" width="460.8pt" xmlns="http://www.w3.org/2000/svg" xmlns:xlink="http://www.w3.org/1999/xlink">
 <metadata>
  <rdf:RDF xmlns:cc="http://creativecommons.org/ns#" xmlns:dc="http://purl.org/dc/elements/1.1/" xmlns:rdf="http://www.w3.org/1999/02/22-rdf-syntax-ns#">
   <cc:Work>
    <dc:type rdf:resource="http://purl.org/dc/dcmitype/StillImage"/>
    <dc:date>2023-10-26T12:42:55.013539</dc:date>
    <dc:format>image/svg+xml</dc:format>
    <dc:creator>
     <cc:Agent>
      <dc:title>Matplotlib v3.4.3, https://matplotlib.org/</dc:title>
     </cc:Agent>
    </dc:creator>
   </cc:Work>
  </rdf:RDF>
 </metadata>
 <defs>
  <style type="text/css">*{stroke-linecap:butt;stroke-linejoin:round;}</style>
 </defs>
 <g id="figure_1">
  <g id="patch_1">
   <path d="M 0 345.6 
L 460.8 345.6 
L 460.8 0 
L 0 0 
z
" style="fill:none;"/>
  </g>
  <g id="axes_1">
   <g id="patch_2">
    <path d="M 57.6 302.4 
L 414.72 302.4 
L 414.72 41.472 
L 57.6 41.472 
z
" style="fill:#ffffff;"/>
   </g>
   <g id="matplotlib.axis_1">
    <g id="xtick_1">
     <g id="line2d_1">
      <defs>
       <path d="M 0 0 
L 0 3.5 
" id="m29a08ad132" style="stroke:#000000;stroke-width:0.8;"/>
      </defs>
      <g>
       <use style="stroke:#000000;stroke-width:0.8;" x="71.497083" xlink:href="#m29a08ad132" y="302.4"/>
      </g>
     </g>
     <g id="text_1">
      <!-- 0 -->
      <g transform="translate(68.315833 316.998437)scale(0.1 -0.1)">
       <defs>
        <path d="M 2034 4250 
Q 1547 4250 1301 3770 
Q 1056 3291 1056 2328 
Q 1056 1369 1301 889 
Q 1547 409 2034 409 
Q 2525 409 2770 889 
Q 3016 1369 3016 2328 
Q 3016 3291 2770 3770 
Q 2525 4250 2034 4250 
z
M 2034 4750 
Q 2819 4750 3233 4129 
Q 3647 3509 3647 2328 
Q 3647 1150 3233 529 
Q 2819 -91 2034 -91 
Q 1250 -91 836 529 
Q 422 1150 422 2328 
Q 422 3509 836 4129 
Q 1250 4750 2034 4750 
z
" id="DejaVuSans-30" transform="scale(0.015625)"/>
       </defs>
       <use xlink:href="#DejaVuSans-30"/>
      </g>
     </g>
    </g>
    <g id="xtick_2">
     <g id="line2d_2">
      <g>
       <use style="stroke:#000000;stroke-width:0.8;" x="118.209967" xlink:href="#m29a08ad132" y="302.4"/>
      </g>
     </g>
     <g id="text_2">
      <!-- 10 -->
      <g transform="translate(111.847467 316.998437)scale(0.1 -0.1)">
       <defs>
        <path d="M 794 531 
L 1825 531 
L 1825 4091 
L 703 3866 
L 703 4441 
L 1819 4666 
L 2450 4666 
L 2450 531 
L 3481 531 
L 3481 0 
L 794 0 
L 794 531 
z
" id="DejaVuSans-31" transform="scale(0.015625)"/>
       </defs>
       <use xlink:href="#DejaVuSans-31"/>
       <use x="63.623047" xlink:href="#DejaVuSans-30"/>
      </g>
     </g>
    </g>
    <g id="xtick_3">
     <g id="line2d_3">
      <g>
       <use style="stroke:#000000;stroke-width:0.8;" x="164.922852" xlink:href="#m29a08ad132" y="302.4"/>
      </g>
     </g>
     <g id="text_3">
      <!-- 20 -->
      <g transform="translate(158.560352 316.998437)scale(0.1 -0.1)">
       <defs>
        <path d="M 1228 531 
L 3431 531 
L 3431 0 
L 469 0 
L 469 531 
Q 828 903 1448 1529 
Q 2069 2156 2228 2338 
Q 2531 2678 2651 2914 
Q 2772 3150 2772 3378 
Q 2772 3750 2511 3984 
Q 2250 4219 1831 4219 
Q 1534 4219 1204 4116 
Q 875 4013 500 3803 
L 500 4441 
Q 881 4594 1212 4672 
Q 1544 4750 1819 4750 
Q 2544 4750 2975 4387 
Q 3406 4025 3406 3419 
Q 3406 3131 3298 2873 
Q 3191 2616 2906 2266 
Q 2828 2175 2409 1742 
Q 1991 1309 1228 531 
z
" id="DejaVuSans-32" transform="scale(0.015625)"/>
       </defs>
       <use xlink:href="#DejaVuSans-32"/>
       <use x="63.623047" xlink:href="#DejaVuSans-30"/>
      </g>
     </g>
    </g>
    <g id="xtick_4">
     <g id="line2d_4">
      <g>
       <use style="stroke:#000000;stroke-width:0.8;" x="211.635736" xlink:href="#m29a08ad132" y="302.4"/>
      </g>
     </g>
     <g id="text_4">
      <!-- 30 -->
      <g transform="translate(205.273236 316.998437)scale(0.1 -0.1)">
       <defs>
        <path d="M 2597 2516 
Q 3050 2419 3304 2112 
Q 3559 1806 3559 1356 
Q 3559 666 3084 287 
Q 2609 -91 1734 -91 
Q 1441 -91 1130 -33 
Q 819 25 488 141 
L 488 750 
Q 750 597 1062 519 
Q 1375 441 1716 441 
Q 2309 441 2620 675 
Q 2931 909 2931 1356 
Q 2931 1769 2642 2001 
Q 2353 2234 1838 2234 
L 1294 2234 
L 1294 2753 
L 1863 2753 
Q 2328 2753 2575 2939 
Q 2822 3125 2822 3475 
Q 2822 3834 2567 4026 
Q 2313 4219 1838 4219 
Q 1578 4219 1281 4162 
Q 984 4106 628 3988 
L 628 4550 
Q 988 4650 1302 4700 
Q 1616 4750 1894 4750 
Q 2613 4750 3031 4423 
Q 3450 4097 3450 3541 
Q 3450 3153 3228 2886 
Q 3006 2619 2597 2516 
z
" id="DejaVuSans-33" transform="scale(0.015625)"/>
       </defs>
       <use xlink:href="#DejaVuSans-33"/>
       <use x="63.623047" xlink:href="#DejaVuSans-30"/>
      </g>
     </g>
    </g>
    <g id="xtick_5">
     <g id="line2d_5">
      <g>
       <use style="stroke:#000000;stroke-width:0.8;" x="258.34862" xlink:href="#m29a08ad132" y="302.4"/>
      </g>
     </g>
     <g id="text_5">
      <!-- 40 -->
      <g transform="translate(251.98612 316.998437)scale(0.1 -0.1)">
       <defs>
        <path d="M 2419 4116 
L 825 1625 
L 2419 1625 
L 2419 4116 
z
M 2253 4666 
L 3047 4666 
L 3047 1625 
L 3713 1625 
L 3713 1100 
L 3047 1100 
L 3047 0 
L 2419 0 
L 2419 1100 
L 313 1100 
L 313 1709 
L 2253 4666 
z
" id="DejaVuSans-34" transform="scale(0.015625)"/>
       </defs>
       <use xlink:href="#DejaVuSans-34"/>
       <use x="63.623047" xlink:href="#DejaVuSans-30"/>
      </g>
     </g>
    </g>
    <g id="xtick_6">
     <g id="line2d_6">
      <g>
       <use style="stroke:#000000;stroke-width:0.8;" x="305.061504" xlink:href="#m29a08ad132" y="302.4"/>
      </g>
     </g>
     <g id="text_6">
      <!-- 50 -->
      <g transform="translate(298.699004 316.998437)scale(0.1 -0.1)">
       <defs>
        <path d="M 691 4666 
L 3169 4666 
L 3169 4134 
L 1269 4134 
L 1269 2991 
Q 1406 3038 1543 3061 
Q 1681 3084 1819 3084 
Q 2600 3084 3056 2656 
Q 3513 2228 3513 1497 
Q 3513 744 3044 326 
Q 2575 -91 1722 -91 
Q 1428 -91 1123 -41 
Q 819 9 494 109 
L 494 744 
Q 775 591 1075 516 
Q 1375 441 1709 441 
Q 2250 441 2565 725 
Q 2881 1009 2881 1497 
Q 2881 1984 2565 2268 
Q 2250 2553 1709 2553 
Q 1456 2553 1204 2497 
Q 953 2441 691 2322 
L 691 4666 
z
" id="DejaVuSans-35" transform="scale(0.015625)"/>
       </defs>
       <use xlink:href="#DejaVuSans-35"/>
       <use x="63.623047" xlink:href="#DejaVuSans-30"/>
      </g>
     </g>
    </g>
    <g id="xtick_7">
     <g id="line2d_7">
      <g>
       <use style="stroke:#000000;stroke-width:0.8;" x="351.774388" xlink:href="#m29a08ad132" y="302.4"/>
      </g>
     </g>
     <g id="text_7">
      <!-- 60 -->
      <g transform="translate(345.411888 316.998437)scale(0.1 -0.1)">
       <defs>
        <path d="M 2113 2584 
Q 1688 2584 1439 2293 
Q 1191 2003 1191 1497 
Q 1191 994 1439 701 
Q 1688 409 2113 409 
Q 2538 409 2786 701 
Q 3034 994 3034 1497 
Q 3034 2003 2786 2293 
Q 2538 2584 2113 2584 
z
M 3366 4563 
L 3366 3988 
Q 3128 4100 2886 4159 
Q 2644 4219 2406 4219 
Q 1781 4219 1451 3797 
Q 1122 3375 1075 2522 
Q 1259 2794 1537 2939 
Q 1816 3084 2150 3084 
Q 2853 3084 3261 2657 
Q 3669 2231 3669 1497 
Q 3669 778 3244 343 
Q 2819 -91 2113 -91 
Q 1303 -91 875 529 
Q 447 1150 447 2328 
Q 447 3434 972 4092 
Q 1497 4750 2381 4750 
Q 2619 4750 2861 4703 
Q 3103 4656 3366 4563 
z
" id="DejaVuSans-36" transform="scale(0.015625)"/>
       </defs>
       <use xlink:href="#DejaVuSans-36"/>
       <use x="63.623047" xlink:href="#DejaVuSans-30"/>
      </g>
     </g>
    </g>
    <g id="xtick_8">
     <g id="line2d_8">
      <g>
       <use style="stroke:#000000;stroke-width:0.8;" x="398.487273" xlink:href="#m29a08ad132" y="302.4"/>
      </g>
     </g>
     <g id="text_8">
      <!-- 70 -->
      <g transform="translate(392.124773 316.998437)scale(0.1 -0.1)">
       <defs>
        <path d="M 525 4666 
L 3525 4666 
L 3525 4397 
L 1831 0 
L 1172 0 
L 2766 4134 
L 525 4134 
L 525 4666 
z
" id="DejaVuSans-37" transform="scale(0.015625)"/>
       </defs>
       <use xlink:href="#DejaVuSans-37"/>
       <use x="63.623047" xlink:href="#DejaVuSans-30"/>
      </g>
     </g>
    </g>
    <g id="text_9">
     <!-- Budget (%) -->
     <g transform="translate(207.934219 330.676562)scale(0.1 -0.1)">
      <defs>
       <path d="M 1259 2228 
L 1259 519 
L 2272 519 
Q 2781 519 3026 730 
Q 3272 941 3272 1375 
Q 3272 1813 3026 2020 
Q 2781 2228 2272 2228 
L 1259 2228 
z
M 1259 4147 
L 1259 2741 
L 2194 2741 
Q 2656 2741 2882 2914 
Q 3109 3088 3109 3444 
Q 3109 3797 2882 3972 
Q 2656 4147 2194 4147 
L 1259 4147 
z
M 628 4666 
L 2241 4666 
Q 2963 4666 3353 4366 
Q 3744 4066 3744 3513 
Q 3744 3084 3544 2831 
Q 3344 2578 2956 2516 
Q 3422 2416 3680 2098 
Q 3938 1781 3938 1306 
Q 3938 681 3513 340 
Q 3088 0 2303 0 
L 628 0 
L 628 4666 
z
" id="DejaVuSans-42" transform="scale(0.015625)"/>
       <path d="M 544 1381 
L 544 3500 
L 1119 3500 
L 1119 1403 
Q 1119 906 1312 657 
Q 1506 409 1894 409 
Q 2359 409 2629 706 
Q 2900 1003 2900 1516 
L 2900 3500 
L 3475 3500 
L 3475 0 
L 2900 0 
L 2900 538 
Q 2691 219 2414 64 
Q 2138 -91 1772 -91 
Q 1169 -91 856 284 
Q 544 659 544 1381 
z
M 1991 3584 
L 1991 3584 
z
" id="DejaVuSans-75" transform="scale(0.015625)"/>
       <path d="M 2906 2969 
L 2906 4863 
L 3481 4863 
L 3481 0 
L 2906 0 
L 2906 525 
Q 2725 213 2448 61 
Q 2172 -91 1784 -91 
Q 1150 -91 751 415 
Q 353 922 353 1747 
Q 353 2572 751 3078 
Q 1150 3584 1784 3584 
Q 2172 3584 2448 3432 
Q 2725 3281 2906 2969 
z
M 947 1747 
Q 947 1113 1208 752 
Q 1469 391 1925 391 
Q 2381 391 2643 752 
Q 2906 1113 2906 1747 
Q 2906 2381 2643 2742 
Q 2381 3103 1925 3103 
Q 1469 3103 1208 2742 
Q 947 2381 947 1747 
z
" id="DejaVuSans-64" transform="scale(0.015625)"/>
       <path d="M 2906 1791 
Q 2906 2416 2648 2759 
Q 2391 3103 1925 3103 
Q 1463 3103 1205 2759 
Q 947 2416 947 1791 
Q 947 1169 1205 825 
Q 1463 481 1925 481 
Q 2391 481 2648 825 
Q 2906 1169 2906 1791 
z
M 3481 434 
Q 3481 -459 3084 -895 
Q 2688 -1331 1869 -1331 
Q 1566 -1331 1297 -1286 
Q 1028 -1241 775 -1147 
L 775 -588 
Q 1028 -725 1275 -790 
Q 1522 -856 1778 -856 
Q 2344 -856 2625 -561 
Q 2906 -266 2906 331 
L 2906 616 
Q 2728 306 2450 153 
Q 2172 0 1784 0 
Q 1141 0 747 490 
Q 353 981 353 1791 
Q 353 2603 747 3093 
Q 1141 3584 1784 3584 
Q 2172 3584 2450 3431 
Q 2728 3278 2906 2969 
L 2906 3500 
L 3481 3500 
L 3481 434 
z
" id="DejaVuSans-67" transform="scale(0.015625)"/>
       <path d="M 3597 1894 
L 3597 1613 
L 953 1613 
Q 991 1019 1311 708 
Q 1631 397 2203 397 
Q 2534 397 2845 478 
Q 3156 559 3463 722 
L 3463 178 
Q 3153 47 2828 -22 
Q 2503 -91 2169 -91 
Q 1331 -91 842 396 
Q 353 884 353 1716 
Q 353 2575 817 3079 
Q 1281 3584 2069 3584 
Q 2775 3584 3186 3129 
Q 3597 2675 3597 1894 
z
M 3022 2063 
Q 3016 2534 2758 2815 
Q 2500 3097 2075 3097 
Q 1594 3097 1305 2825 
Q 1016 2553 972 2059 
L 3022 2063 
z
" id="DejaVuSans-65" transform="scale(0.015625)"/>
       <path d="M 1172 4494 
L 1172 3500 
L 2356 3500 
L 2356 3053 
L 1172 3053 
L 1172 1153 
Q 1172 725 1289 603 
Q 1406 481 1766 481 
L 2356 481 
L 2356 0 
L 1766 0 
Q 1100 0 847 248 
Q 594 497 594 1153 
L 594 3053 
L 172 3053 
L 172 3500 
L 594 3500 
L 594 4494 
L 1172 4494 
z
" id="DejaVuSans-74" transform="scale(0.015625)"/>
       <path id="DejaVuSans-20" transform="scale(0.015625)"/>
       <path d="M 1984 4856 
Q 1566 4138 1362 3434 
Q 1159 2731 1159 2009 
Q 1159 1288 1364 580 
Q 1569 -128 1984 -844 
L 1484 -844 
Q 1016 -109 783 600 
Q 550 1309 550 2009 
Q 550 2706 781 3412 
Q 1013 4119 1484 4856 
L 1984 4856 
z
" id="DejaVuSans-28" transform="scale(0.015625)"/>
       <path d="M 4653 2053 
Q 4381 2053 4226 1822 
Q 4072 1591 4072 1178 
Q 4072 772 4226 539 
Q 4381 306 4653 306 
Q 4919 306 5073 539 
Q 5228 772 5228 1178 
Q 5228 1588 5073 1820 
Q 4919 2053 4653 2053 
z
M 4653 2450 
Q 5147 2450 5437 2106 
Q 5728 1763 5728 1178 
Q 5728 594 5436 251 
Q 5144 -91 4653 -91 
Q 4153 -91 3862 251 
Q 3572 594 3572 1178 
Q 3572 1766 3864 2108 
Q 4156 2450 4653 2450 
z
M 1428 4353 
Q 1159 4353 1004 4120 
Q 850 3888 850 3481 
Q 850 3069 1003 2837 
Q 1156 2606 1428 2606 
Q 1700 2606 1854 2837 
Q 2009 3069 2009 3481 
Q 2009 3884 1853 4118 
Q 1697 4353 1428 4353 
z
M 4250 4750 
L 4750 4750 
L 1831 -91 
L 1331 -91 
L 4250 4750 
z
M 1428 4750 
Q 1922 4750 2215 4408 
Q 2509 4066 2509 3481 
Q 2509 2891 2217 2550 
Q 1925 2209 1428 2209 
Q 931 2209 642 2551 
Q 353 2894 353 3481 
Q 353 4063 643 4406 
Q 934 4750 1428 4750 
z
" id="DejaVuSans-25" transform="scale(0.015625)"/>
       <path d="M 513 4856 
L 1013 4856 
Q 1481 4119 1714 3412 
Q 1947 2706 1947 2009 
Q 1947 1309 1714 600 
Q 1481 -109 1013 -844 
L 513 -844 
Q 928 -128 1133 580 
Q 1338 1288 1338 2009 
Q 1338 2731 1133 3434 
Q 928 4138 513 4856 
z
" id="DejaVuSans-29" transform="scale(0.015625)"/>
      </defs>
      <use xlink:href="#DejaVuSans-42"/>
      <use x="68.603516" xlink:href="#DejaVuSans-75"/>
      <use x="131.982422" xlink:href="#DejaVuSans-64"/>
      <use x="195.458984" xlink:href="#DejaVuSans-67"/>
      <use x="258.935547" xlink:href="#DejaVuSans-65"/>
      <use x="320.458984" xlink:href="#DejaVuSans-74"/>
      <use x="359.667969" xlink:href="#DejaVuSans-20"/>
      <use x="391.455078" xlink:href="#DejaVuSans-28"/>
      <use x="430.46875" xlink:href="#DejaVuSans-25"/>
      <use x="525.488281" xlink:href="#DejaVuSans-29"/>
     </g>
    </g>
   </g>
   <g id="matplotlib.axis_2">
    <g id="ytick_1">
     <g id="line2d_9">
      <defs>
       <path d="M 0 0 
L -3.5 0 
" id="m8a7a3ec3e4" style="stroke:#000000;stroke-width:0.8;"/>
      </defs>
      <g>
       <use style="stroke:#000000;stroke-width:0.8;" x="57.6" xlink:href="#m8a7a3ec3e4" y="301.466911"/>
      </g>
     </g>
     <g id="text_10">
      <!-- $\mathdefault{10^{0}}$ -->
      <g transform="translate(33 305.266129)scale(0.1 -0.1)">
       <use transform="translate(0 0.765625)" xlink:href="#DejaVuSans-31"/>
       <use transform="translate(63.623047 0.765625)" xlink:href="#DejaVuSans-30"/>
       <use transform="translate(128.203125 39.046875)scale(0.7)" xlink:href="#DejaVuSans-30"/>
      </g>
     </g>
    </g>
    <g id="ytick_2">
     <g id="line2d_10">
      <g>
       <use style="stroke:#000000;stroke-width:0.8;" x="57.6" xlink:href="#m8a7a3ec3e4" y="248.269382"/>
      </g>
     </g>
     <g id="text_11">
      <!-- $\mathdefault{10^{1}}$ -->
      <g transform="translate(33 252.068601)scale(0.1 -0.1)">
       <use transform="translate(0 0.684375)" xlink:href="#DejaVuSans-31"/>
       <use transform="translate(63.623047 0.684375)" xlink:href="#DejaVuSans-30"/>
       <use transform="translate(128.203125 38.965625)scale(0.7)" xlink:href="#DejaVuSans-31"/>
      </g>
     </g>
    </g>
    <g id="ytick_3">
     <g id="line2d_11">
      <g>
       <use style="stroke:#000000;stroke-width:0.8;" x="57.6" xlink:href="#m8a7a3ec3e4" y="195.071853"/>
      </g>
     </g>
     <g id="text_12">
      <!-- $\mathdefault{10^{2}}$ -->
      <g transform="translate(33 198.871072)scale(0.1 -0.1)">
       <use transform="translate(0 0.765625)" xlink:href="#DejaVuSans-31"/>
       <use transform="translate(63.623047 0.765625)" xlink:href="#DejaVuSans-30"/>
       <use transform="translate(128.203125 39.046875)scale(0.7)" xlink:href="#DejaVuSans-32"/>
      </g>
     </g>
    </g>
    <g id="ytick_4">
     <g id="line2d_12">
      <g>
       <use style="stroke:#000000;stroke-width:0.8;" x="57.6" xlink:href="#m8a7a3ec3e4" y="141.874324"/>
      </g>
     </g>
     <g id="text_13">
      <!-- $\mathdefault{10^{3}}$ -->
      <g transform="translate(33 145.673543)scale(0.1 -0.1)">
       <use transform="translate(0 0.765625)" xlink:href="#DejaVuSans-31"/>
       <use transform="translate(63.623047 0.765625)" xlink:href="#DejaVuSans-30"/>
       <use transform="translate(128.203125 39.046875)scale(0.7)" xlink:href="#DejaVuSans-33"/>
      </g>
     </g>
    </g>
    <g id="ytick_5">
     <g id="line2d_13">
      <g>
       <use style="stroke:#000000;stroke-width:0.8;" x="57.6" xlink:href="#m8a7a3ec3e4" y="88.676795"/>
      </g>
     </g>
     <g id="text_14">
      <!-- $\mathdefault{10^{4}}$ -->
      <g transform="translate(33 92.476014)scale(0.1 -0.1)">
       <use transform="translate(0 0.684375)" xlink:href="#DejaVuSans-31"/>
       <use transform="translate(63.623047 0.684375)" xlink:href="#DejaVuSans-30"/>
       <use transform="translate(128.203125 38.965625)scale(0.7)" xlink:href="#DejaVuSans-34"/>
      </g>
     </g>
    </g>
    <g id="ytick_6">
     <g id="line2d_14">
      <defs>
       <path d="M 0 0 
L -2 0 
" id="ma5f8daaf90" style="stroke:#000000;stroke-width:0.6;"/>
      </defs>
      <g>
       <use style="stroke:#000000;stroke-width:0.6;" x="57.6" xlink:href="#ma5f8daaf90" y="285.452859"/>
      </g>
     </g>
    </g>
    <g id="ytick_7">
     <g id="line2d_15">
      <g>
       <use style="stroke:#000000;stroke-width:0.6;" x="57.6" xlink:href="#ma5f8daaf90" y="276.085239"/>
      </g>
     </g>
    </g>
    <g id="ytick_8">
     <g id="line2d_16">
      <g>
       <use style="stroke:#000000;stroke-width:0.6;" x="57.6" xlink:href="#ma5f8daaf90" y="269.438807"/>
      </g>
     </g>
    </g>
    <g id="ytick_9">
     <g id="line2d_17">
      <g>
       <use style="stroke:#000000;stroke-width:0.6;" x="57.6" xlink:href="#ma5f8daaf90" y="264.283434"/>
      </g>
     </g>
    </g>
    <g id="ytick_10">
     <g id="line2d_18">
      <g>
       <use style="stroke:#000000;stroke-width:0.6;" x="57.6" xlink:href="#ma5f8daaf90" y="260.071187"/>
      </g>
     </g>
    </g>
    <g id="ytick_11">
     <g id="line2d_19">
      <g>
       <use style="stroke:#000000;stroke-width:0.6;" x="57.6" xlink:href="#ma5f8daaf90" y="256.509783"/>
      </g>
     </g>
    </g>
    <g id="ytick_12">
     <g id="line2d_20">
      <g>
       <use style="stroke:#000000;stroke-width:0.6;" x="57.6" xlink:href="#ma5f8daaf90" y="253.424755"/>
      </g>
     </g>
    </g>
    <g id="ytick_13">
     <g id="line2d_21">
      <g>
       <use style="stroke:#000000;stroke-width:0.6;" x="57.6" xlink:href="#ma5f8daaf90" y="250.703567"/>
      </g>
     </g>
    </g>
    <g id="ytick_14">
     <g id="line2d_22">
      <g>
       <use style="stroke:#000000;stroke-width:0.6;" x="57.6" xlink:href="#ma5f8daaf90" y="232.25533"/>
      </g>
     </g>
    </g>
    <g id="ytick_15">
     <g id="line2d_23">
      <g>
       <use style="stroke:#000000;stroke-width:0.6;" x="57.6" xlink:href="#ma5f8daaf90" y="222.88771"/>
      </g>
     </g>
    </g>
    <g id="ytick_16">
     <g id="line2d_24">
      <g>
       <use style="stroke:#000000;stroke-width:0.6;" x="57.6" xlink:href="#ma5f8daaf90" y="216.241278"/>
      </g>
     </g>
    </g>
    <g id="ytick_17">
     <g id="line2d_25">
      <g>
       <use style="stroke:#000000;stroke-width:0.6;" x="57.6" xlink:href="#ma5f8daaf90" y="211.085905"/>
      </g>
     </g>
    </g>
    <g id="ytick_18">
     <g id="line2d_26">
      <g>
       <use style="stroke:#000000;stroke-width:0.6;" x="57.6" xlink:href="#ma5f8daaf90" y="206.873658"/>
      </g>
     </g>
    </g>
    <g id="ytick_19">
     <g id="line2d_27">
      <g>
       <use style="stroke:#000000;stroke-width:0.6;" x="57.6" xlink:href="#ma5f8daaf90" y="203.312254"/>
      </g>
     </g>
    </g>
    <g id="ytick_20">
     <g id="line2d_28">
      <g>
       <use style="stroke:#000000;stroke-width:0.6;" x="57.6" xlink:href="#ma5f8daaf90" y="200.227226"/>
      </g>
     </g>
    </g>
    <g id="ytick_21">
     <g id="line2d_29">
      <g>
       <use style="stroke:#000000;stroke-width:0.6;" x="57.6" xlink:href="#ma5f8daaf90" y="197.506038"/>
      </g>
     </g>
    </g>
    <g id="ytick_22">
     <g id="line2d_30">
      <g>
       <use style="stroke:#000000;stroke-width:0.6;" x="57.6" xlink:href="#ma5f8daaf90" y="179.057801"/>
      </g>
     </g>
    </g>
    <g id="ytick_23">
     <g id="line2d_31">
      <g>
       <use style="stroke:#000000;stroke-width:0.6;" x="57.6" xlink:href="#ma5f8daaf90" y="169.690181"/>
      </g>
     </g>
    </g>
    <g id="ytick_24">
     <g id="line2d_32">
      <g>
       <use style="stroke:#000000;stroke-width:0.6;" x="57.6" xlink:href="#ma5f8daaf90" y="163.043749"/>
      </g>
     </g>
    </g>
    <g id="ytick_25">
     <g id="line2d_33">
      <g>
       <use style="stroke:#000000;stroke-width:0.6;" x="57.6" xlink:href="#ma5f8daaf90" y="157.888376"/>
      </g>
     </g>
    </g>
    <g id="ytick_26">
     <g id="line2d_34">
      <g>
       <use style="stroke:#000000;stroke-width:0.6;" x="57.6" xlink:href="#ma5f8daaf90" y="153.676129"/>
      </g>
     </g>
    </g>
    <g id="ytick_27">
     <g id="line2d_35">
      <g>
       <use style="stroke:#000000;stroke-width:0.6;" x="57.6" xlink:href="#ma5f8daaf90" y="150.114725"/>
      </g>
     </g>
    </g>
    <g id="ytick_28">
     <g id="line2d_36">
      <g>
       <use style="stroke:#000000;stroke-width:0.6;" x="57.6" xlink:href="#ma5f8daaf90" y="147.029697"/>
      </g>
     </g>
    </g>
    <g id="ytick_29">
     <g id="line2d_37">
      <g>
       <use style="stroke:#000000;stroke-width:0.6;" x="57.6" xlink:href="#ma5f8daaf90" y="144.308509"/>
      </g>
     </g>
    </g>
    <g id="ytick_30">
     <g id="line2d_38">
      <g>
       <use style="stroke:#000000;stroke-width:0.6;" x="57.6" xlink:href="#ma5f8daaf90" y="125.860272"/>
      </g>
     </g>
    </g>
    <g id="ytick_31">
     <g id="line2d_39">
      <g>
       <use style="stroke:#000000;stroke-width:0.6;" x="57.6" xlink:href="#ma5f8daaf90" y="116.492652"/>
      </g>
     </g>
    </g>
    <g id="ytick_32">
     <g id="line2d_40">
      <g>
       <use style="stroke:#000000;stroke-width:0.6;" x="57.6" xlink:href="#ma5f8daaf90" y="109.84622"/>
      </g>
     </g>
    </g>
    <g id="ytick_33">
     <g id="line2d_41">
      <g>
       <use style="stroke:#000000;stroke-width:0.6;" x="57.6" xlink:href="#ma5f8daaf90" y="104.690847"/>
      </g>
     </g>
    </g>
    <g id="ytick_34">
     <g id="line2d_42">
      <g>
       <use style="stroke:#000000;stroke-width:0.6;" x="57.6" xlink:href="#ma5f8daaf90" y="100.4786"/>
      </g>
     </g>
    </g>
    <g id="ytick_35">
     <g id="line2d_43">
      <g>
       <use style="stroke:#000000;stroke-width:0.6;" x="57.6" xlink:href="#ma5f8daaf90" y="96.917196"/>
      </g>
     </g>
    </g>
    <g id="ytick_36">
     <g id="line2d_44">
      <g>
       <use style="stroke:#000000;stroke-width:0.6;" x="57.6" xlink:href="#ma5f8daaf90" y="93.832168"/>
      </g>
     </g>
    </g>
    <g id="ytick_37">
     <g id="line2d_45">
      <g>
       <use style="stroke:#000000;stroke-width:0.6;" x="57.6" xlink:href="#ma5f8daaf90" y="91.11098"/>
      </g>
     </g>
    </g>
    <g id="ytick_38">
     <g id="line2d_46">
      <g>
       <use style="stroke:#000000;stroke-width:0.6;" x="57.6" xlink:href="#ma5f8daaf90" y="72.662743"/>
      </g>
     </g>
    </g>
    <g id="ytick_39">
     <g id="line2d_47">
      <g>
       <use style="stroke:#000000;stroke-width:0.6;" x="57.6" xlink:href="#ma5f8daaf90" y="63.295123"/>
      </g>
     </g>
    </g>
    <g id="ytick_40">
     <g id="line2d_48">
      <g>
       <use style="stroke:#000000;stroke-width:0.6;" x="57.6" xlink:href="#ma5f8daaf90" y="56.648691"/>
      </g>
     </g>
    </g>
    <g id="ytick_41">
     <g id="line2d_49">
      <g>
       <use style="stroke:#000000;stroke-width:0.6;" x="57.6" xlink:href="#ma5f8daaf90" y="51.493318"/>
      </g>
     </g>
    </g>
    <g id="ytick_42">
     <g id="line2d_50">
      <g>
       <use style="stroke:#000000;stroke-width:0.6;" x="57.6" xlink:href="#ma5f8daaf90" y="47.281071"/>
      </g>
     </g>
    </g>
    <g id="ytick_43">
     <g id="line2d_51">
      <g>
       <use style="stroke:#000000;stroke-width:0.6;" x="57.6" xlink:href="#ma5f8daaf90" y="43.719667"/>
      </g>
     </g>
    </g>
    <g id="text_15">
     <!-- MSE -->
     <g transform="translate(26.920313 182.583656)rotate(-90)scale(0.1 -0.1)">
      <defs>
       <path d="M 628 4666 
L 1569 4666 
L 2759 1491 
L 3956 4666 
L 4897 4666 
L 4897 0 
L 4281 0 
L 4281 4097 
L 3078 897 
L 2444 897 
L 1241 4097 
L 1241 0 
L 628 0 
L 628 4666 
z
" id="DejaVuSans-4d" transform="scale(0.015625)"/>
       <path d="M 3425 4513 
L 3425 3897 
Q 3066 4069 2747 4153 
Q 2428 4238 2131 4238 
Q 1616 4238 1336 4038 
Q 1056 3838 1056 3469 
Q 1056 3159 1242 3001 
Q 1428 2844 1947 2747 
L 2328 2669 
Q 3034 2534 3370 2195 
Q 3706 1856 3706 1288 
Q 3706 609 3251 259 
Q 2797 -91 1919 -91 
Q 1588 -91 1214 -16 
Q 841 59 441 206 
L 441 856 
Q 825 641 1194 531 
Q 1563 422 1919 422 
Q 2459 422 2753 634 
Q 3047 847 3047 1241 
Q 3047 1584 2836 1778 
Q 2625 1972 2144 2069 
L 1759 2144 
Q 1053 2284 737 2584 
Q 422 2884 422 3419 
Q 422 4038 858 4394 
Q 1294 4750 2059 4750 
Q 2388 4750 2728 4690 
Q 3069 4631 3425 4513 
z
" id="DejaVuSans-53" transform="scale(0.015625)"/>
       <path d="M 628 4666 
L 3578 4666 
L 3578 4134 
L 1259 4134 
L 1259 2753 
L 3481 2753 
L 3481 2222 
L 1259 2222 
L 1259 531 
L 3634 531 
L 3634 0 
L 628 0 
L 628 4666 
z
" id="DejaVuSans-45" transform="scale(0.015625)"/>
      </defs>
      <use xlink:href="#DejaVuSans-4d"/>
      <use x="86.279297" xlink:href="#DejaVuSans-53"/>
      <use x="149.755859" xlink:href="#DejaVuSans-45"/>
     </g>
    </g>
   </g>
   <g id="LineCollection_1">
    <path clip-path="url(#pd4f894c3d3)" d="M 73.832727 290.539636 
L 73.832727 290.539636 
" style="fill:none;stroke:#2ca02c;stroke-width:1.5;"/>
    <path clip-path="url(#pd4f894c3d3)" d="M 74.766985 290.539636 
L 74.766985 290.539636 
" style="fill:none;stroke:#2ca02c;stroke-width:1.5;"/>
    <path clip-path="url(#pd4f894c3d3)" d="M 76.168371 290.539636 
L 76.168371 290.539636 
" style="fill:none;stroke:#2ca02c;stroke-width:1.5;"/>
    <path clip-path="url(#pd4f894c3d3)" d="M 80.83966 290.539636 
L 80.83966 290.539636 
" style="fill:none;stroke:#2ca02c;stroke-width:1.5;"/>
    <path clip-path="url(#pd4f894c3d3)" d="M 85.510948 290.539636 
L 85.510948 290.539636 
" style="fill:none;stroke:#2ca02c;stroke-width:1.5;"/>
    <path clip-path="url(#pd4f894c3d3)" d="M 94.853525 290.539636 
L 94.853525 290.539636 
" style="fill:none;stroke:#2ca02c;stroke-width:1.5;"/>
    <path clip-path="url(#pd4f894c3d3)" d="M 104.196102 290.539636 
L 104.196102 290.539636 
" style="fill:none;stroke:#2ca02c;stroke-width:1.5;"/>
    <path clip-path="url(#pd4f894c3d3)" d="M 118.209967 290.539636 
L 118.209967 290.539636 
" style="fill:none;stroke:#2ca02c;stroke-width:1.5;"/>
    <path clip-path="url(#pd4f894c3d3)" d="M 164.922852 290.539636 
L 164.922852 290.539636 
" style="fill:none;stroke:#2ca02c;stroke-width:1.5;"/>
    <path clip-path="url(#pd4f894c3d3)" d="M 188.279294 290.539636 
L 188.279294 290.539636 
" style="fill:none;stroke:#2ca02c;stroke-width:1.5;"/>
    <path clip-path="url(#pd4f894c3d3)" d="M 211.635736 290.539636 
L 211.635736 290.539636 
" style="fill:none;stroke:#2ca02c;stroke-width:1.5;"/>
    <path clip-path="url(#pd4f894c3d3)" d="M 305.061504 290.539636 
L 305.061504 290.539636 
" style="fill:none;stroke:#2ca02c;stroke-width:1.5;"/>
    <path clip-path="url(#pd4f894c3d3)" d="M 398.487273 290.539636 
L 398.487273 290.539636 
" style="fill:none;stroke:#2ca02c;stroke-width:1.5;"/>
   </g>
   <g id="LineCollection_2">
    <path clip-path="url(#pd4f894c3d3)" d="M 73.832727 270.299864 
L 73.832727 250.886406 
" style="fill:none;stroke:#9467bd;stroke-width:1.5;"/>
    <path clip-path="url(#pd4f894c3d3)" d="M 74.766985 346.6 
L 74.766985 227.660699 
" style="fill:none;stroke:#9467bd;stroke-width:1.5;"/>
    <path clip-path="url(#pd4f894c3d3)" d="M 76.168371 284.416272 
L 76.168371 279.575523 
" style="fill:none;stroke:#9467bd;stroke-width:1.5;"/>
    <path clip-path="url(#pd4f894c3d3)" d="M 80.83966 288.9517 
L 80.83966 288.034262 
" style="fill:none;stroke:#9467bd;stroke-width:1.5;"/>
    <path clip-path="url(#pd4f894c3d3)" d="M 85.510948 289.212291 
L 85.510948 288.501654 
" style="fill:none;stroke:#9467bd;stroke-width:1.5;"/>
    <path clip-path="url(#pd4f894c3d3)" d="M 94.853525 289.880967 
L 94.853525 289.336024 
" style="fill:none;stroke:#9467bd;stroke-width:1.5;"/>
    <path clip-path="url(#pd4f894c3d3)" d="M 104.196102 290.202888 
L 104.196102 289.83438 
" style="fill:none;stroke:#9467bd;stroke-width:1.5;"/>
    <path clip-path="url(#pd4f894c3d3)" d="M 118.209967 290.240251 
L 118.209967 290.028708 
" style="fill:none;stroke:#9467bd;stroke-width:1.5;"/>
    <path clip-path="url(#pd4f894c3d3)" d="M 164.922852 290.407929 
L 164.922852 290.321063 
" style="fill:none;stroke:#9467bd;stroke-width:1.5;"/>
    <path clip-path="url(#pd4f894c3d3)" d="M 188.279294 290.437993 
L 188.279294 290.349847 
" style="fill:none;stroke:#9467bd;stroke-width:1.5;"/>
    <path clip-path="url(#pd4f894c3d3)" d="M 211.635736 290.449968 
L 211.635736 290.41341 
" style="fill:none;stroke:#9467bd;stroke-width:1.5;"/>
    <path clip-path="url(#pd4f894c3d3)" d="M 305.061504 290.510325 
L 305.061504 290.494599 
" style="fill:none;stroke:#9467bd;stroke-width:1.5;"/>
    <path clip-path="url(#pd4f894c3d3)" d="M 398.487273 290.526287 
L 398.487273 290.52018 
" style="fill:none;stroke:#9467bd;stroke-width:1.5;"/>
   </g>
   <g id="LineCollection_3">
    <path clip-path="url(#pd4f894c3d3)" d="M 73.832727 284.970755 
L 73.832727 277.12201 
" style="fill:none;stroke:#1f77b4;stroke-width:1.5;"/>
    <path clip-path="url(#pd4f894c3d3)" d="M 74.766985 286.626989 
L 74.766985 283.208743 
" style="fill:none;stroke:#1f77b4;stroke-width:1.5;"/>
    <path clip-path="url(#pd4f894c3d3)" d="M 76.168371 287.784848 
L 76.168371 284.925156 
" style="fill:none;stroke:#1f77b4;stroke-width:1.5;"/>
    <path clip-path="url(#pd4f894c3d3)" d="M 80.83966 289.146829 
L 80.83966 286.865303 
" style="fill:none;stroke:#1f77b4;stroke-width:1.5;"/>
    <path clip-path="url(#pd4f894c3d3)" d="M 85.510948 289.550212 
L 85.510948 284.145457 
" style="fill:none;stroke:#1f77b4;stroke-width:1.5;"/>
    <path clip-path="url(#pd4f894c3d3)" d="M 94.853525 289.893421 
L 94.853525 289.31208 
" style="fill:none;stroke:#1f77b4;stroke-width:1.5;"/>
    <path clip-path="url(#pd4f894c3d3)" d="M 104.196102 290.169391 
L 104.196102 289.879899 
" style="fill:none;stroke:#1f77b4;stroke-width:1.5;"/>
    <path clip-path="url(#pd4f894c3d3)" d="M 118.209967 290.245743 
L 118.209967 289.950532 
" style="fill:none;stroke:#1f77b4;stroke-width:1.5;"/>
    <path clip-path="url(#pd4f894c3d3)" d="M 164.922852 290.270511 
L 164.922852 290.046477 
" style="fill:none;stroke:#1f77b4;stroke-width:1.5;"/>
    <path clip-path="url(#pd4f894c3d3)" d="M 188.279294 290.233922 
L 188.279294 289.991076 
" style="fill:none;stroke:#1f77b4;stroke-width:1.5;"/>
    <path clip-path="url(#pd4f894c3d3)" d="M 211.635736 290.12298 
L 211.635736 289.900237 
" style="fill:none;stroke:#1f77b4;stroke-width:1.5;"/>
    <path clip-path="url(#pd4f894c3d3)" d="M 305.061504 289.244695 
L 305.061504 289.032837 
" style="fill:none;stroke:#1f77b4;stroke-width:1.5;"/>
    <path clip-path="url(#pd4f894c3d3)" d="M 398.487273 286.946688 
L 398.487273 286.599935 
" style="fill:none;stroke:#1f77b4;stroke-width:1.5;"/>
   </g>
   <g id="LineCollection_4">
    <path clip-path="url(#pd4f894c3d3)" d="M 73.832727 270.783731 
L 73.832727 256.673002 
" style="fill:none;stroke:#d62728;stroke-width:1.5;"/>
    <path clip-path="url(#pd4f894c3d3)" d="M 74.766985 286.18054 
L 74.766985 262.170765 
" style="fill:none;stroke:#d62728;stroke-width:1.5;"/>
    <path clip-path="url(#pd4f894c3d3)" d="M 76.168371 284.31423 
L 76.168371 281.313762 
" style="fill:none;stroke:#d62728;stroke-width:1.5;"/>
    <path clip-path="url(#pd4f894c3d3)" d="M 80.83966 287.973867 
L 80.83966 286.574424 
" style="fill:none;stroke:#d62728;stroke-width:1.5;"/>
    <path clip-path="url(#pd4f894c3d3)" d="M 85.510948 288.540315 
L 85.510948 287.856393 
" style="fill:none;stroke:#d62728;stroke-width:1.5;"/>
    <path clip-path="url(#pd4f894c3d3)" d="M 94.853525 289.250686 
L 94.853525 288.791666 
" style="fill:none;stroke:#d62728;stroke-width:1.5;"/>
    <path clip-path="url(#pd4f894c3d3)" d="M 104.196102 289.694286 
L 104.196102 289.321375 
" style="fill:none;stroke:#d62728;stroke-width:1.5;"/>
    <path clip-path="url(#pd4f894c3d3)" d="M 118.209967 289.949926 
L 118.209967 289.63067 
" style="fill:none;stroke:#d62728;stroke-width:1.5;"/>
    <path clip-path="url(#pd4f894c3d3)" d="M 164.922852 290.303512 
L 164.922852 290.159804 
" style="fill:none;stroke:#d62728;stroke-width:1.5;"/>
    <path clip-path="url(#pd4f894c3d3)" d="M 188.279294 290.297798 
L 188.279294 289.965088 
" style="fill:none;stroke:#d62728;stroke-width:1.5;"/>
    <path clip-path="url(#pd4f894c3d3)" d="M 211.635736 290.280155 
L 211.635736 290.064648 
" style="fill:none;stroke:#d62728;stroke-width:1.5;"/>
    <path clip-path="url(#pd4f894c3d3)" d="M 305.061504 289.687945 
L 305.061504 289.458768 
" style="fill:none;stroke:#d62728;stroke-width:1.5;"/>
    <path clip-path="url(#pd4f894c3d3)" d="M 398.487273 287.47641 
L 398.487273 287.04338 
" style="fill:none;stroke:#d62728;stroke-width:1.5;"/>
   </g>
   <g id="LineCollection_5">
    <path clip-path="url(#pd4f894c3d3)" d="M 73.832727 278.093709 
L 73.832727 267.665496 
" style="fill:none;stroke:#ff7f0e;stroke-width:1.5;"/>
    <path clip-path="url(#pd4f894c3d3)" d="M 74.766985 281.992845 
L 74.766985 267.950146 
" style="fill:none;stroke:#ff7f0e;stroke-width:1.5;"/>
    <path clip-path="url(#pd4f894c3d3)" d="M 76.168371 287.728555 
L 76.168371 276.554177 
" style="fill:none;stroke:#ff7f0e;stroke-width:1.5;"/>
    <path clip-path="url(#pd4f894c3d3)" d="M 80.83966 287.907191 
L 80.83966 286.829465 
" style="fill:none;stroke:#ff7f0e;stroke-width:1.5;"/>
    <path clip-path="url(#pd4f894c3d3)" d="M 85.510948 288.547479 
L 85.510948 287.519555 
" style="fill:none;stroke:#ff7f0e;stroke-width:1.5;"/>
    <path clip-path="url(#pd4f894c3d3)" d="M 94.853525 289.168803 
L 94.853525 288.645288 
" style="fill:none;stroke:#ff7f0e;stroke-width:1.5;"/>
    <path clip-path="url(#pd4f894c3d3)" d="M 104.196102 289.599891 
L 104.196102 289.195866 
" style="fill:none;stroke:#ff7f0e;stroke-width:1.5;"/>
    <path clip-path="url(#pd4f894c3d3)" d="M 118.209967 289.85134 
L 118.209967 289.476065 
" style="fill:none;stroke:#ff7f0e;stroke-width:1.5;"/>
    <path clip-path="url(#pd4f894c3d3)" d="M 164.922852 290.300224 
L 164.922852 290.180472 
" style="fill:none;stroke:#ff7f0e;stroke-width:1.5;"/>
    <path clip-path="url(#pd4f894c3d3)" d="M 188.279294 290.352619 
L 188.279294 290.269669 
" style="fill:none;stroke:#ff7f0e;stroke-width:1.5;"/>
    <path clip-path="url(#pd4f894c3d3)" d="M 211.635736 290.306995 
L 211.635736 290.169303 
" style="fill:none;stroke:#ff7f0e;stroke-width:1.5;"/>
    <path clip-path="url(#pd4f894c3d3)" d="M 305.061504 289.923763 
L 305.061504 289.695613 
" style="fill:none;stroke:#ff7f0e;stroke-width:1.5;"/>
    <path clip-path="url(#pd4f894c3d3)" d="M 398.487273 288.857401 
L 398.487273 288.642892 
" style="fill:none;stroke:#ff7f0e;stroke-width:1.5;"/>
   </g>
   <g id="LineCollection_6">
    <path clip-path="url(#pd4f894c3d3)" d="M 73.832727 112.643846 
L 73.832727 110.944216 
" style="fill:none;stroke:#17becf;stroke-width:1.5;"/>
    <path clip-path="url(#pd4f894c3d3)" d="M 74.766985 116.05635 
L 74.766985 114.579135 
" style="fill:none;stroke:#17becf;stroke-width:1.5;"/>
    <path clip-path="url(#pd4f894c3d3)" d="M 76.168371 121.910427 
L 76.168371 120.508228 
" style="fill:none;stroke:#17becf;stroke-width:1.5;"/>
    <path clip-path="url(#pd4f894c3d3)" d="M 80.83966 136.682477 
L 80.83966 135.38679 
" style="fill:none;stroke:#17becf;stroke-width:1.5;"/>
    <path clip-path="url(#pd4f894c3d3)" d="M 85.510948 147.035258 
L 85.510948 145.985469 
" style="fill:none;stroke:#17becf;stroke-width:1.5;"/>
    <path clip-path="url(#pd4f894c3d3)" d="M 94.853525 162.51011 
L 94.853525 161.780684 
" style="fill:none;stroke:#17becf;stroke-width:1.5;"/>
    <path clip-path="url(#pd4f894c3d3)" d="M 104.196102 174.598738 
L 104.196102 173.880355 
" style="fill:none;stroke:#17becf;stroke-width:1.5;"/>
    <path clip-path="url(#pd4f894c3d3)" d="M 118.209967 188.189372 
L 118.209967 187.594656 
" style="fill:none;stroke:#17becf;stroke-width:1.5;"/>
    <path clip-path="url(#pd4f894c3d3)" d="M 164.922852 218.948047 
L 164.922852 218.351304 
" style="fill:none;stroke:#17becf;stroke-width:1.5;"/>
    <path clip-path="url(#pd4f894c3d3)" d="M 188.279294 229.895159 
L 188.279294 229.404593 
" style="fill:none;stroke:#17becf;stroke-width:1.5;"/>
    <path clip-path="url(#pd4f894c3d3)" d="M 211.635736 239.477391 
L 211.635736 239.028441 
" style="fill:none;stroke:#17becf;stroke-width:1.5;"/>
    <path clip-path="url(#pd4f894c3d3)" d="M 305.061504 267.901875 
L 305.061504 267.591112 
" style="fill:none;stroke:#17becf;stroke-width:1.5;"/>
    <path clip-path="url(#pd4f894c3d3)" d="M 398.487273 284.115044 
L 398.487273 283.969674 
" style="fill:none;stroke:#17becf;stroke-width:1.5;"/>
   </g>
   <g id="LineCollection_7">
    <path clip-path="url(#pd4f894c3d3)" d="M 74.766985 110.708833 
L 74.766985 53.332364 
" style="fill:none;stroke:#7f7f7f;stroke-width:1.5;"/>
    <path clip-path="url(#pd4f894c3d3)" d="M 76.168371 132.493771 
L 76.168371 114.718135 
" style="fill:none;stroke:#7f7f7f;stroke-width:1.5;"/>
    <path clip-path="url(#pd4f894c3d3)" d="M 80.83966 165.811993 
L 80.83966 157.332362 
" style="fill:none;stroke:#7f7f7f;stroke-width:1.5;"/>
    <path clip-path="url(#pd4f894c3d3)" d="M 85.510948 187.256775 
L 85.510948 169.941565 
" style="fill:none;stroke:#7f7f7f;stroke-width:1.5;"/>
    <path clip-path="url(#pd4f894c3d3)" d="M 94.853525 205.398975 
L 94.853525 199.027319 
" style="fill:none;stroke:#7f7f7f;stroke-width:1.5;"/>
    <path clip-path="url(#pd4f894c3d3)" d="M 104.196102 224.336261 
L 104.196102 218.062698 
" style="fill:none;stroke:#7f7f7f;stroke-width:1.5;"/>
    <path clip-path="url(#pd4f894c3d3)" d="M 118.209967 238.057243 
L 118.209967 232.606727 
" style="fill:none;stroke:#7f7f7f;stroke-width:1.5;"/>
    <path clip-path="url(#pd4f894c3d3)" d="M 164.922852 269.711576 
L 164.922852 266.342599 
" style="fill:none;stroke:#7f7f7f;stroke-width:1.5;"/>
    <path clip-path="url(#pd4f894c3d3)" d="M 188.279294 278.915824 
L 188.279294 276.377452 
" style="fill:none;stroke:#7f7f7f;stroke-width:1.5;"/>
    <path clip-path="url(#pd4f894c3d3)" d="M 211.635736 284.348141 
L 211.635736 282.591594 
" style="fill:none;stroke:#7f7f7f;stroke-width:1.5;"/>
    <path clip-path="url(#pd4f894c3d3)" d="M 305.061504 290.016121 
L 305.061504 289.855895 
" style="fill:none;stroke:#7f7f7f;stroke-width:1.5;"/>
    <path clip-path="url(#pd4f894c3d3)" d="M 398.487273 290.431851 
L 398.487273 290.411479 
" style="fill:none;stroke:#7f7f7f;stroke-width:1.5;"/>
   </g>
   <g id="line2d_52">
    <path clip-path="url(#pd4f894c3d3)" d="M 73.832727 290.539636 
L 74.766985 290.539636 
L 76.168371 290.539636 
L 80.83966 290.539636 
L 85.510948 290.539636 
L 94.853525 290.539636 
L 104.196102 290.539636 
L 118.209967 290.539636 
L 164.922852 290.539636 
L 188.279294 290.539636 
L 211.635736 290.539636 
L 305.061504 290.539636 
L 398.487273 290.539636 
" style="fill:none;stroke:#2ca02c;stroke-linecap:square;stroke-width:1.5;"/>
   </g>
   <g id="line2d_53">
    <path clip-path="url(#pd4f894c3d3)" d="M 73.832727 258.611338 
L 74.766985 245.513691 
L 76.168371 281.869346 
L 80.83966 288.488427 
L 85.510948 288.85424 
L 94.853525 289.606889 
L 104.196102 290.017899 
L 118.209967 290.134237 
L 164.922852 290.364455 
L 188.279294 290.393878 
L 211.635736 290.431682 
L 305.061504 290.502461 
L 398.487273 290.523233 
" style="fill:none;stroke:#9467bd;stroke-linecap:square;stroke-width:1.5;"/>
   </g>
   <g id="line2d_54">
    <path clip-path="url(#pd4f894c3d3)" d="M 73.832727 280.714674 
L 74.766985 284.854706 
L 76.168371 286.310784 
L 80.83966 287.977914 
L 85.510948 286.690147 
L 94.853525 289.600922 
L 104.196102 290.024191 
L 118.209967 290.097666 
L 164.922852 290.158223 
L 188.279294 290.11218 
L 211.635736 290.01134 
L 305.061504 289.138523 
L 398.487273 286.772661 
" style="fill:none;stroke:#1f77b4;stroke-linecap:square;stroke-width:1.5;"/>
   </g>
   <g id="line2d_55">
    <path clip-path="url(#pd4f894c3d3)" d="M 73.832727 262.667414 
L 74.766985 271.187698 
L 76.168371 282.765321 
L 80.83966 287.263551 
L 85.510948 288.195823 
L 94.853525 289.020036 
L 104.196102 289.507078 
L 118.209967 289.789747 
L 164.922852 290.231547 
L 188.279294 290.130844 
L 211.635736 290.17215 
L 305.061504 289.573072 
L 398.487273 287.25888 
" style="fill:none;stroke:#d62728;stroke-linecap:square;stroke-width:1.5;"/>
   </g>
   <g id="line2d_56">
    <path clip-path="url(#pd4f894c3d3)" d="M 73.832727 272.296156 
L 74.766985 273.920597 
L 76.168371 281.472264 
L 80.83966 287.362044 
L 85.510948 288.027801 
L 94.853525 288.905563 
L 104.196102 289.396995 
L 118.209967 289.66294 
L 164.922852 290.240271 
L 188.279294 290.311107 
L 211.635736 290.238047 
L 305.061504 289.809406 
L 398.487273 288.749897 
" style="fill:none;stroke:#ff7f0e;stroke-linecap:square;stroke-width:1.5;"/>
   </g>
   <g id="line2d_57">
    <path clip-path="url(#pd4f894c3d3)" d="M 73.832727 111.778405 
L 74.766985 115.305938 
L 76.168371 121.198691 
L 80.83966 136.025552 
L 85.510948 146.504401 
L 94.853525 162.142518 
L 104.196102 174.236754 
L 118.209967 187.8901 
L 164.922852 218.647749 
L 188.279294 229.648574 
L 211.635736 239.251826 
L 305.061504 267.745971 
L 398.487273 284.042245 
" style="fill:none;stroke:#17becf;stroke-linecap:square;stroke-width:1.5;"/>
   </g>
   <g id="line2d_58">
    <path clip-path="url(#pd4f894c3d3)" d="M 74.766985 67.494594 
L 76.168371 121.936966 
L 80.83966 161.185307 
L 85.510948 177.013626 
L 94.853525 201.994186 
L 104.196102 220.987188 
L 118.209967 235.171622 
L 164.922852 267.965733 
L 188.279294 277.611794 
L 211.635736 283.453178 
L 305.061504 289.935869 
L 398.487273 290.421663 
" style="fill:none;stroke:#7f7f7f;stroke-linecap:square;stroke-width:1.5;"/>
   </g>
   <g id="patch_3">
    <path d="M 57.6 302.4 
L 57.6 41.472 
" style="fill:none;stroke:#000000;stroke-linecap:square;stroke-linejoin:miter;stroke-width:0.8;"/>
   </g>
   <g id="patch_4">
    <path d="M 414.72 302.4 
L 414.72 41.472 
" style="fill:none;stroke:#000000;stroke-linecap:square;stroke-linejoin:miter;stroke-width:0.8;"/>
   </g>
   <g id="patch_5">
    <path d="M 57.6 302.4 
L 414.72 302.4 
" style="fill:none;stroke:#000000;stroke-linecap:square;stroke-linejoin:miter;stroke-width:0.8;"/>
   </g>
   <g id="patch_6">
    <path d="M 57.6 41.472 
L 414.72 41.472 
" style="fill:none;stroke:#000000;stroke-linecap:square;stroke-linejoin:miter;stroke-width:0.8;"/>
   </g>
   <g id="legend_1">
    <g id="patch_7">
     <path d="M 149.82 152.262625 
L 407.72 152.262625 
Q 409.72 152.262625 409.72 150.262625 
L 409.72 48.472 
Q 409.72 46.472 407.72 46.472 
L 149.82 46.472 
Q 147.82 46.472 147.82 48.472 
L 147.82 150.262625 
Q 147.82 152.262625 149.82 152.262625 
z
" style="fill:#ffffff;opacity:0.8;stroke:#cccccc;stroke-linejoin:miter;"/>
    </g>
    <g id="LineCollection_8">
     <path d="M 161.82 59.570437 
L 161.82 49.570437 
" style="fill:none;stroke:#2ca02c;stroke-width:1.5;"/>
    </g>
    <g id="line2d_59">
     <path d="M 151.82 54.570437 
L 171.82 54.570437 
" style="fill:none;stroke:#2ca02c;stroke-linecap:square;stroke-width:1.5;"/>
    </g>
    <g id="line2d_60"/>
    <g id="text_16">
     <!-- MSE with full $AX$ -->
     <g transform="translate(179.82 58.070437)scale(0.1 -0.1)">
      <defs>
       <path d="M 269 3500 
L 844 3500 
L 1563 769 
L 2278 3500 
L 2956 3500 
L 3675 769 
L 4391 3500 
L 4966 3500 
L 4050 0 
L 3372 0 
L 2619 2869 
L 1863 0 
L 1184 0 
L 269 3500 
z
" id="DejaVuSans-77" transform="scale(0.015625)"/>
       <path d="M 603 3500 
L 1178 3500 
L 1178 0 
L 603 0 
L 603 3500 
z
M 603 4863 
L 1178 4863 
L 1178 4134 
L 603 4134 
L 603 4863 
z
" id="DejaVuSans-69" transform="scale(0.015625)"/>
       <path d="M 3513 2113 
L 3513 0 
L 2938 0 
L 2938 2094 
Q 2938 2591 2744 2837 
Q 2550 3084 2163 3084 
Q 1697 3084 1428 2787 
Q 1159 2491 1159 1978 
L 1159 0 
L 581 0 
L 581 4863 
L 1159 4863 
L 1159 2956 
Q 1366 3272 1645 3428 
Q 1925 3584 2291 3584 
Q 2894 3584 3203 3211 
Q 3513 2838 3513 2113 
z
" id="DejaVuSans-68" transform="scale(0.015625)"/>
       <path d="M 2375 4863 
L 2375 4384 
L 1825 4384 
Q 1516 4384 1395 4259 
Q 1275 4134 1275 3809 
L 1275 3500 
L 2222 3500 
L 2222 3053 
L 1275 3053 
L 1275 0 
L 697 0 
L 697 3053 
L 147 3053 
L 147 3500 
L 697 3500 
L 697 3744 
Q 697 4328 969 4595 
Q 1241 4863 1831 4863 
L 2375 4863 
z
" id="DejaVuSans-66" transform="scale(0.015625)"/>
       <path d="M 603 4863 
L 1178 4863 
L 1178 0 
L 603 0 
L 603 4863 
z
" id="DejaVuSans-6c" transform="scale(0.015625)"/>
       <path d="M 2356 4666 
L 3072 4666 
L 3938 0 
L 3278 0 
L 3084 1197 
L 984 1197 
L 325 0 
L -341 0 
L 2356 4666 
z
M 2584 4044 
L 1275 1722 
L 2988 1722 
L 2584 4044 
z
" id="DejaVuSans-Oblique-41" transform="scale(0.015625)"/>
       <path d="M 878 4666 
L 1516 4666 
L 2316 2981 
L 3763 4666 
L 4500 4666 
L 2578 2438 
L 3738 0 
L 3103 0 
L 2163 1966 
L 459 0 
L -275 0 
L 1906 2509 
L 878 4666 
z
" id="DejaVuSans-Oblique-58" transform="scale(0.015625)"/>
      </defs>
      <use transform="translate(0 0.015625)" xlink:href="#DejaVuSans-4d"/>
      <use transform="translate(86.279297 0.015625)" xlink:href="#DejaVuSans-53"/>
      <use transform="translate(149.755859 0.015625)" xlink:href="#DejaVuSans-45"/>
      <use transform="translate(212.939453 0.015625)" xlink:href="#DejaVuSans-20"/>
      <use transform="translate(244.726562 0.015625)" xlink:href="#DejaVuSans-77"/>
      <use transform="translate(326.513672 0.015625)" xlink:href="#DejaVuSans-69"/>
      <use transform="translate(354.296875 0.015625)" xlink:href="#DejaVuSans-74"/>
      <use transform="translate(393.505859 0.015625)" xlink:href="#DejaVuSans-68"/>
      <use transform="translate(456.884766 0.015625)" xlink:href="#DejaVuSans-20"/>
      <use transform="translate(488.671875 0.015625)" xlink:href="#DejaVuSans-66"/>
      <use transform="translate(523.876953 0.015625)" xlink:href="#DejaVuSans-75"/>
      <use transform="translate(587.255859 0.015625)" xlink:href="#DejaVuSans-6c"/>
      <use transform="translate(615.039062 0.015625)" xlink:href="#DejaVuSans-6c"/>
      <use transform="translate(642.822266 0.015625)" xlink:href="#DejaVuSans-20"/>
      <use transform="translate(674.609375 0.015625)" xlink:href="#DejaVuSans-Oblique-41"/>
      <use transform="translate(743.017578 0.015625)" xlink:href="#DejaVuSans-Oblique-58"/>
     </g>
    </g>
    <g id="LineCollection_9">
     <path d="M 161.82 74.250125 
L 161.82 64.250125 
" style="fill:none;stroke:#9467bd;stroke-width:1.5;"/>
    </g>
    <g id="line2d_61">
     <path d="M 151.82 69.250125 
L 171.82 69.250125 
" style="fill:none;stroke:#9467bd;stroke-linecap:square;stroke-width:1.5;"/>
    </g>
    <g id="line2d_62"/>
    <g id="text_17">
     <!-- MSE with uniformly sampled $AX$ -->
     <g transform="translate(179.82 72.750125)scale(0.1 -0.1)">
      <defs>
       <path d="M 3513 2113 
L 3513 0 
L 2938 0 
L 2938 2094 
Q 2938 2591 2744 2837 
Q 2550 3084 2163 3084 
Q 1697 3084 1428 2787 
Q 1159 2491 1159 1978 
L 1159 0 
L 581 0 
L 581 3500 
L 1159 3500 
L 1159 2956 
Q 1366 3272 1645 3428 
Q 1925 3584 2291 3584 
Q 2894 3584 3203 3211 
Q 3513 2838 3513 2113 
z
" id="DejaVuSans-6e" transform="scale(0.015625)"/>
       <path d="M 1959 3097 
Q 1497 3097 1228 2736 
Q 959 2375 959 1747 
Q 959 1119 1226 758 
Q 1494 397 1959 397 
Q 2419 397 2687 759 
Q 2956 1122 2956 1747 
Q 2956 2369 2687 2733 
Q 2419 3097 1959 3097 
z
M 1959 3584 
Q 2709 3584 3137 3096 
Q 3566 2609 3566 1747 
Q 3566 888 3137 398 
Q 2709 -91 1959 -91 
Q 1206 -91 779 398 
Q 353 888 353 1747 
Q 353 2609 779 3096 
Q 1206 3584 1959 3584 
z
" id="DejaVuSans-6f" transform="scale(0.015625)"/>
       <path d="M 2631 2963 
Q 2534 3019 2420 3045 
Q 2306 3072 2169 3072 
Q 1681 3072 1420 2755 
Q 1159 2438 1159 1844 
L 1159 0 
L 581 0 
L 581 3500 
L 1159 3500 
L 1159 2956 
Q 1341 3275 1631 3429 
Q 1922 3584 2338 3584 
Q 2397 3584 2469 3576 
Q 2541 3569 2628 3553 
L 2631 2963 
z
" id="DejaVuSans-72" transform="scale(0.015625)"/>
       <path d="M 3328 2828 
Q 3544 3216 3844 3400 
Q 4144 3584 4550 3584 
Q 5097 3584 5394 3201 
Q 5691 2819 5691 2113 
L 5691 0 
L 5113 0 
L 5113 2094 
Q 5113 2597 4934 2840 
Q 4756 3084 4391 3084 
Q 3944 3084 3684 2787 
Q 3425 2491 3425 1978 
L 3425 0 
L 2847 0 
L 2847 2094 
Q 2847 2600 2669 2842 
Q 2491 3084 2119 3084 
Q 1678 3084 1418 2786 
Q 1159 2488 1159 1978 
L 1159 0 
L 581 0 
L 581 3500 
L 1159 3500 
L 1159 2956 
Q 1356 3278 1631 3431 
Q 1906 3584 2284 3584 
Q 2666 3584 2933 3390 
Q 3200 3197 3328 2828 
z
" id="DejaVuSans-6d" transform="scale(0.015625)"/>
       <path d="M 2059 -325 
Q 1816 -950 1584 -1140 
Q 1353 -1331 966 -1331 
L 506 -1331 
L 506 -850 
L 844 -850 
Q 1081 -850 1212 -737 
Q 1344 -625 1503 -206 
L 1606 56 
L 191 3500 
L 800 3500 
L 1894 763 
L 2988 3500 
L 3597 3500 
L 2059 -325 
z
" id="DejaVuSans-79" transform="scale(0.015625)"/>
       <path d="M 2834 3397 
L 2834 2853 
Q 2591 2978 2328 3040 
Q 2066 3103 1784 3103 
Q 1356 3103 1142 2972 
Q 928 2841 928 2578 
Q 928 2378 1081 2264 
Q 1234 2150 1697 2047 
L 1894 2003 
Q 2506 1872 2764 1633 
Q 3022 1394 3022 966 
Q 3022 478 2636 193 
Q 2250 -91 1575 -91 
Q 1294 -91 989 -36 
Q 684 19 347 128 
L 347 722 
Q 666 556 975 473 
Q 1284 391 1588 391 
Q 1994 391 2212 530 
Q 2431 669 2431 922 
Q 2431 1156 2273 1281 
Q 2116 1406 1581 1522 
L 1381 1569 
Q 847 1681 609 1914 
Q 372 2147 372 2553 
Q 372 3047 722 3315 
Q 1072 3584 1716 3584 
Q 2034 3584 2315 3537 
Q 2597 3491 2834 3397 
z
" id="DejaVuSans-73" transform="scale(0.015625)"/>
       <path d="M 2194 1759 
Q 1497 1759 1228 1600 
Q 959 1441 959 1056 
Q 959 750 1161 570 
Q 1363 391 1709 391 
Q 2188 391 2477 730 
Q 2766 1069 2766 1631 
L 2766 1759 
L 2194 1759 
z
M 3341 1997 
L 3341 0 
L 2766 0 
L 2766 531 
Q 2569 213 2275 61 
Q 1981 -91 1556 -91 
Q 1019 -91 701 211 
Q 384 513 384 1019 
Q 384 1609 779 1909 
Q 1175 2209 1959 2209 
L 2766 2209 
L 2766 2266 
Q 2766 2663 2505 2880 
Q 2244 3097 1772 3097 
Q 1472 3097 1187 3025 
Q 903 2953 641 2809 
L 641 3341 
Q 956 3463 1253 3523 
Q 1550 3584 1831 3584 
Q 2591 3584 2966 3190 
Q 3341 2797 3341 1997 
z
" id="DejaVuSans-61" transform="scale(0.015625)"/>
       <path d="M 1159 525 
L 1159 -1331 
L 581 -1331 
L 581 3500 
L 1159 3500 
L 1159 2969 
Q 1341 3281 1617 3432 
Q 1894 3584 2278 3584 
Q 2916 3584 3314 3078 
Q 3713 2572 3713 1747 
Q 3713 922 3314 415 
Q 2916 -91 2278 -91 
Q 1894 -91 1617 61 
Q 1341 213 1159 525 
z
M 3116 1747 
Q 3116 2381 2855 2742 
Q 2594 3103 2138 3103 
Q 1681 3103 1420 2742 
Q 1159 2381 1159 1747 
Q 1159 1113 1420 752 
Q 1681 391 2138 391 
Q 2594 391 2855 752 
Q 3116 1113 3116 1747 
z
" id="DejaVuSans-70" transform="scale(0.015625)"/>
      </defs>
      <use transform="translate(0 0.015625)" xlink:href="#DejaVuSans-4d"/>
      <use transform="translate(86.279297 0.015625)" xlink:href="#DejaVuSans-53"/>
      <use transform="translate(149.755859 0.015625)" xlink:href="#DejaVuSans-45"/>
      <use transform="translate(212.939453 0.015625)" xlink:href="#DejaVuSans-20"/>
      <use transform="translate(244.726562 0.015625)" xlink:href="#DejaVuSans-77"/>
      <use transform="translate(326.513672 0.015625)" xlink:href="#DejaVuSans-69"/>
      <use transform="translate(354.296875 0.015625)" xlink:href="#DejaVuSans-74"/>
      <use transform="translate(393.505859 0.015625)" xlink:href="#DejaVuSans-68"/>
      <use transform="translate(456.884766 0.015625)" xlink:href="#DejaVuSans-20"/>
      <use transform="translate(488.671875 0.015625)" xlink:href="#DejaVuSans-75"/>
      <use transform="translate(552.050781 0.015625)" xlink:href="#DejaVuSans-6e"/>
      <use transform="translate(615.429688 0.015625)" xlink:href="#DejaVuSans-69"/>
      <use transform="translate(643.212891 0.015625)" xlink:href="#DejaVuSans-66"/>
      <use transform="translate(678.417969 0.015625)" xlink:href="#DejaVuSans-6f"/>
      <use transform="translate(739.599609 0.015625)" xlink:href="#DejaVuSans-72"/>
      <use transform="translate(780.712891 0.015625)" xlink:href="#DejaVuSans-6d"/>
      <use transform="translate(878.125 0.015625)" xlink:href="#DejaVuSans-6c"/>
      <use transform="translate(905.908203 0.015625)" xlink:href="#DejaVuSans-79"/>
      <use transform="translate(965.087891 0.015625)" xlink:href="#DejaVuSans-20"/>
      <use transform="translate(996.875 0.015625)" xlink:href="#DejaVuSans-73"/>
      <use transform="translate(1048.974609 0.015625)" xlink:href="#DejaVuSans-61"/>
      <use transform="translate(1110.253906 0.015625)" xlink:href="#DejaVuSans-6d"/>
      <use transform="translate(1207.666016 0.015625)" xlink:href="#DejaVuSans-70"/>
      <use transform="translate(1271.142578 0.015625)" xlink:href="#DejaVuSans-6c"/>
      <use transform="translate(1298.925781 0.015625)" xlink:href="#DejaVuSans-65"/>
      <use transform="translate(1360.449219 0.015625)" xlink:href="#DejaVuSans-64"/>
      <use transform="translate(1423.925781 0.015625)" xlink:href="#DejaVuSans-20"/>
      <use transform="translate(1455.712891 0.015625)" xlink:href="#DejaVuSans-Oblique-41"/>
      <use transform="translate(1524.121094 0.015625)" xlink:href="#DejaVuSans-Oblique-58"/>
     </g>
    </g>
    <g id="LineCollection_10">
     <path d="M 161.82 88.950125 
L 161.82 78.950125 
" style="fill:none;stroke:#1f77b4;stroke-width:1.5;"/>
    </g>
    <g id="line2d_63">
     <path d="M 151.82 83.950125 
L 171.82 83.950125 
" style="fill:none;stroke:#1f77b4;stroke-linecap:square;stroke-width:1.5;"/>
    </g>
    <g id="line2d_64"/>
    <g id="text_18">
     <!-- MSE via exact leverage score sampling of $AX$ -->
     <g transform="translate(179.82 87.450125)scale(0.1 -0.1)">
      <defs>
       <path d="M 191 3500 
L 800 3500 
L 1894 563 
L 2988 3500 
L 3597 3500 
L 2284 0 
L 1503 0 
L 191 3500 
z
" id="DejaVuSans-76" transform="scale(0.015625)"/>
       <path d="M 3513 3500 
L 2247 1797 
L 3578 0 
L 2900 0 
L 1881 1375 
L 863 0 
L 184 0 
L 1544 1831 
L 300 3500 
L 978 3500 
L 1906 2253 
L 2834 3500 
L 3513 3500 
z
" id="DejaVuSans-78" transform="scale(0.015625)"/>
       <path d="M 3122 3366 
L 3122 2828 
Q 2878 2963 2633 3030 
Q 2388 3097 2138 3097 
Q 1578 3097 1268 2742 
Q 959 2388 959 1747 
Q 959 1106 1268 751 
Q 1578 397 2138 397 
Q 2388 397 2633 464 
Q 2878 531 3122 666 
L 3122 134 
Q 2881 22 2623 -34 
Q 2366 -91 2075 -91 
Q 1284 -91 818 406 
Q 353 903 353 1747 
Q 353 2603 823 3093 
Q 1294 3584 2113 3584 
Q 2378 3584 2631 3529 
Q 2884 3475 3122 3366 
z
" id="DejaVuSans-63" transform="scale(0.015625)"/>
      </defs>
      <use transform="translate(0 0.015625)" xlink:href="#DejaVuSans-4d"/>
      <use transform="translate(86.279297 0.015625)" xlink:href="#DejaVuSans-53"/>
      <use transform="translate(149.755859 0.015625)" xlink:href="#DejaVuSans-45"/>
      <use transform="translate(212.939453 0.015625)" xlink:href="#DejaVuSans-20"/>
      <use transform="translate(244.726562 0.015625)" xlink:href="#DejaVuSans-76"/>
      <use transform="translate(303.90625 0.015625)" xlink:href="#DejaVuSans-69"/>
      <use transform="translate(331.689453 0.015625)" xlink:href="#DejaVuSans-61"/>
      <use transform="translate(392.96875 0.015625)" xlink:href="#DejaVuSans-20"/>
      <use transform="translate(424.755859 0.015625)" xlink:href="#DejaVuSans-65"/>
      <use transform="translate(486.279297 0.015625)" xlink:href="#DejaVuSans-78"/>
      <use transform="translate(545.458984 0.015625)" xlink:href="#DejaVuSans-61"/>
      <use transform="translate(606.738281 0.015625)" xlink:href="#DejaVuSans-63"/>
      <use transform="translate(661.71875 0.015625)" xlink:href="#DejaVuSans-74"/>
      <use transform="translate(700.927734 0.015625)" xlink:href="#DejaVuSans-20"/>
      <use transform="translate(732.714844 0.015625)" xlink:href="#DejaVuSans-6c"/>
      <use transform="translate(760.498047 0.015625)" xlink:href="#DejaVuSans-65"/>
      <use transform="translate(822.021484 0.015625)" xlink:href="#DejaVuSans-76"/>
      <use transform="translate(881.201172 0.015625)" xlink:href="#DejaVuSans-65"/>
      <use transform="translate(942.724609 0.015625)" xlink:href="#DejaVuSans-72"/>
      <use transform="translate(983.837891 0.015625)" xlink:href="#DejaVuSans-61"/>
      <use transform="translate(1045.117188 0.015625)" xlink:href="#DejaVuSans-67"/>
      <use transform="translate(1108.59375 0.015625)" xlink:href="#DejaVuSans-65"/>
      <use transform="translate(1170.117188 0.015625)" xlink:href="#DejaVuSans-20"/>
      <use transform="translate(1201.904297 0.015625)" xlink:href="#DejaVuSans-73"/>
      <use transform="translate(1254.003906 0.015625)" xlink:href="#DejaVuSans-63"/>
      <use transform="translate(1308.984375 0.015625)" xlink:href="#DejaVuSans-6f"/>
      <use transform="translate(1370.166016 0.015625)" xlink:href="#DejaVuSans-72"/>
      <use transform="translate(1411.279297 0.015625)" xlink:href="#DejaVuSans-65"/>
      <use transform="translate(1472.802734 0.015625)" xlink:href="#DejaVuSans-20"/>
      <use transform="translate(1504.589844 0.015625)" xlink:href="#DejaVuSans-73"/>
      <use transform="translate(1556.689453 0.015625)" xlink:href="#DejaVuSans-61"/>
      <use transform="translate(1617.96875 0.015625)" xlink:href="#DejaVuSans-6d"/>
      <use transform="translate(1715.380859 0.015625)" xlink:href="#DejaVuSans-70"/>
      <use transform="translate(1778.857422 0.015625)" xlink:href="#DejaVuSans-6c"/>
      <use transform="translate(1806.640625 0.015625)" xlink:href="#DejaVuSans-69"/>
      <use transform="translate(1834.423828 0.015625)" xlink:href="#DejaVuSans-6e"/>
      <use transform="translate(1897.802734 0.015625)" xlink:href="#DejaVuSans-67"/>
      <use transform="translate(1961.279297 0.015625)" xlink:href="#DejaVuSans-20"/>
      <use transform="translate(1993.066406 0.015625)" xlink:href="#DejaVuSans-6f"/>
      <use transform="translate(2054.248047 0.015625)" xlink:href="#DejaVuSans-66"/>
      <use transform="translate(2089.453125 0.015625)" xlink:href="#DejaVuSans-20"/>
      <use transform="translate(2121.240234 0.015625)" xlink:href="#DejaVuSans-Oblique-41"/>
      <use transform="translate(2189.648438 0.015625)" xlink:href="#DejaVuSans-Oblique-58"/>
     </g>
    </g>
    <g id="LineCollection_11">
     <path d="M 161.82 103.648562 
L 161.82 93.648562 
" style="fill:none;stroke:#d62728;stroke-width:1.5;"/>
    </g>
    <g id="line2d_65">
     <path d="M 151.82 98.648562 
L 171.82 98.648562 
" style="fill:none;stroke:#d62728;stroke-linecap:square;stroke-width:1.5;"/>
    </g>
    <g id="line2d_66"/>
    <g id="text_19">
     <!-- MSE via Algorithm 1 -->
     <g transform="translate(179.82 102.148562)scale(0.1 -0.1)">
      <defs>
       <path d="M 2188 4044 
L 1331 1722 
L 3047 1722 
L 2188 4044 
z
M 1831 4666 
L 2547 4666 
L 4325 0 
L 3669 0 
L 3244 1197 
L 1141 1197 
L 716 0 
L 50 0 
L 1831 4666 
z
" id="DejaVuSans-41" transform="scale(0.015625)"/>
      </defs>
      <use xlink:href="#DejaVuSans-4d"/>
      <use x="86.279297" xlink:href="#DejaVuSans-53"/>
      <use x="149.755859" xlink:href="#DejaVuSans-45"/>
      <use x="212.939453" xlink:href="#DejaVuSans-20"/>
      <use x="244.726562" xlink:href="#DejaVuSans-76"/>
      <use x="303.90625" xlink:href="#DejaVuSans-69"/>
      <use x="331.689453" xlink:href="#DejaVuSans-61"/>
      <use x="392.96875" xlink:href="#DejaVuSans-20"/>
      <use x="424.755859" xlink:href="#DejaVuSans-41"/>
      <use x="493.164062" xlink:href="#DejaVuSans-6c"/>
      <use x="520.947266" xlink:href="#DejaVuSans-67"/>
      <use x="584.423828" xlink:href="#DejaVuSans-6f"/>
      <use x="645.605469" xlink:href="#DejaVuSans-72"/>
      <use x="686.71875" xlink:href="#DejaVuSans-69"/>
      <use x="714.501953" xlink:href="#DejaVuSans-74"/>
      <use x="753.710938" xlink:href="#DejaVuSans-68"/>
      <use x="817.089844" xlink:href="#DejaVuSans-6d"/>
      <use x="914.501953" xlink:href="#DejaVuSans-20"/>
      <use x="946.289062" xlink:href="#DejaVuSans-31"/>
     </g>
    </g>
    <g id="LineCollection_12">
     <path d="M 161.82 118.326687 
L 161.82 108.326687 
" style="fill:none;stroke:#ff7f0e;stroke-width:1.5;"/>
    </g>
    <g id="line2d_67">
     <path d="M 151.82 113.326687 
L 171.82 113.326687 
" style="fill:none;stroke:#ff7f0e;stroke-linecap:square;stroke-width:1.5;"/>
    </g>
    <g id="line2d_68"/>
    <g id="text_20">
     <!-- MSE via Algorithm 2 -->
     <g transform="translate(179.82 116.826687)scale(0.1 -0.1)">
      <use xlink:href="#DejaVuSans-4d"/>
      <use x="86.279297" xlink:href="#DejaVuSans-53"/>
      <use x="149.755859" xlink:href="#DejaVuSans-45"/>
      <use x="212.939453" xlink:href="#DejaVuSans-20"/>
      <use x="244.726562" xlink:href="#DejaVuSans-76"/>
      <use x="303.90625" xlink:href="#DejaVuSans-69"/>
      <use x="331.689453" xlink:href="#DejaVuSans-61"/>
      <use x="392.96875" xlink:href="#DejaVuSans-20"/>
      <use x="424.755859" xlink:href="#DejaVuSans-41"/>
      <use x="493.164062" xlink:href="#DejaVuSans-6c"/>
      <use x="520.947266" xlink:href="#DejaVuSans-67"/>
      <use x="584.423828" xlink:href="#DejaVuSans-6f"/>
      <use x="645.605469" xlink:href="#DejaVuSans-72"/>
      <use x="686.71875" xlink:href="#DejaVuSans-69"/>
      <use x="714.501953" xlink:href="#DejaVuSans-74"/>
      <use x="753.710938" xlink:href="#DejaVuSans-68"/>
      <use x="817.089844" xlink:href="#DejaVuSans-6d"/>
      <use x="914.501953" xlink:href="#DejaVuSans-20"/>
      <use x="946.289062" xlink:href="#DejaVuSans-32"/>
     </g>
    </g>
    <g id="LineCollection_13">
     <path d="M 161.82 133.004812 
L 161.82 123.004812 
" style="fill:none;stroke:#17becf;stroke-width:1.5;"/>
    </g>
    <g id="line2d_69">
     <path d="M 151.82 128.004812 
L 171.82 128.004812 
" style="fill:none;stroke:#17becf;stroke-linecap:square;stroke-width:1.5;"/>
    </g>
    <g id="line2d_70"/>
    <g id="text_21">
     <!-- MSE via GraphSage based sampling -->
     <g transform="translate(179.82 131.504812)scale(0.1 -0.1)">
      <defs>
       <path d="M 3809 666 
L 3809 1919 
L 2778 1919 
L 2778 2438 
L 4434 2438 
L 4434 434 
Q 4069 175 3628 42 
Q 3188 -91 2688 -91 
Q 1594 -91 976 548 
Q 359 1188 359 2328 
Q 359 3472 976 4111 
Q 1594 4750 2688 4750 
Q 3144 4750 3555 4637 
Q 3966 4525 4313 4306 
L 4313 3634 
Q 3963 3931 3569 4081 
Q 3175 4231 2741 4231 
Q 1884 4231 1454 3753 
Q 1025 3275 1025 2328 
Q 1025 1384 1454 906 
Q 1884 428 2741 428 
Q 3075 428 3337 486 
Q 3600 544 3809 666 
z
" id="DejaVuSans-47" transform="scale(0.015625)"/>
       <path d="M 3116 1747 
Q 3116 2381 2855 2742 
Q 2594 3103 2138 3103 
Q 1681 3103 1420 2742 
Q 1159 2381 1159 1747 
Q 1159 1113 1420 752 
Q 1681 391 2138 391 
Q 2594 391 2855 752 
Q 3116 1113 3116 1747 
z
M 1159 2969 
Q 1341 3281 1617 3432 
Q 1894 3584 2278 3584 
Q 2916 3584 3314 3078 
Q 3713 2572 3713 1747 
Q 3713 922 3314 415 
Q 2916 -91 2278 -91 
Q 1894 -91 1617 61 
Q 1341 213 1159 525 
L 1159 0 
L 581 0 
L 581 4863 
L 1159 4863 
L 1159 2969 
z
" id="DejaVuSans-62" transform="scale(0.015625)"/>
      </defs>
      <use xlink:href="#DejaVuSans-4d"/>
      <use x="86.279297" xlink:href="#DejaVuSans-53"/>
      <use x="149.755859" xlink:href="#DejaVuSans-45"/>
      <use x="212.939453" xlink:href="#DejaVuSans-20"/>
      <use x="244.726562" xlink:href="#DejaVuSans-76"/>
      <use x="303.90625" xlink:href="#DejaVuSans-69"/>
      <use x="331.689453" xlink:href="#DejaVuSans-61"/>
      <use x="392.96875" xlink:href="#DejaVuSans-20"/>
      <use x="424.755859" xlink:href="#DejaVuSans-47"/>
      <use x="502.246094" xlink:href="#DejaVuSans-72"/>
      <use x="543.359375" xlink:href="#DejaVuSans-61"/>
      <use x="604.638672" xlink:href="#DejaVuSans-70"/>
      <use x="668.115234" xlink:href="#DejaVuSans-68"/>
      <use x="731.494141" xlink:href="#DejaVuSans-53"/>
      <use x="794.970703" xlink:href="#DejaVuSans-61"/>
      <use x="856.25" xlink:href="#DejaVuSans-67"/>
      <use x="919.726562" xlink:href="#DejaVuSans-65"/>
      <use x="981.25" xlink:href="#DejaVuSans-20"/>
      <use x="1013.037109" xlink:href="#DejaVuSans-62"/>
      <use x="1076.513672" xlink:href="#DejaVuSans-61"/>
      <use x="1137.792969" xlink:href="#DejaVuSans-73"/>
      <use x="1189.892578" xlink:href="#DejaVuSans-65"/>
      <use x="1251.416016" xlink:href="#DejaVuSans-64"/>
      <use x="1314.892578" xlink:href="#DejaVuSans-20"/>
      <use x="1346.679688" xlink:href="#DejaVuSans-73"/>
      <use x="1398.779297" xlink:href="#DejaVuSans-61"/>
      <use x="1460.058594" xlink:href="#DejaVuSans-6d"/>
      <use x="1557.470703" xlink:href="#DejaVuSans-70"/>
      <use x="1620.947266" xlink:href="#DejaVuSans-6c"/>
      <use x="1648.730469" xlink:href="#DejaVuSans-69"/>
      <use x="1676.513672" xlink:href="#DejaVuSans-6e"/>
      <use x="1739.892578" xlink:href="#DejaVuSans-67"/>
     </g>
    </g>
    <g id="LineCollection_14">
     <path d="M 161.82 147.682937 
L 161.82 137.682937 
" style="fill:none;stroke:#7f7f7f;stroke-width:1.5;"/>
    </g>
    <g id="line2d_71">
     <path d="M 151.82 142.682937 
L 171.82 142.682937 
" style="fill:none;stroke:#7f7f7f;stroke-linecap:square;stroke-width:1.5;"/>
    </g>
    <g id="line2d_72"/>
    <g id="text_22">
     <!-- MSE via GraphSaint based sampling -->
     <g transform="translate(179.82 146.182937)scale(0.1 -0.1)">
      <use xlink:href="#DejaVuSans-4d"/>
      <use x="86.279297" xlink:href="#DejaVuSans-53"/>
      <use x="149.755859" xlink:href="#DejaVuSans-45"/>
      <use x="212.939453" xlink:href="#DejaVuSans-20"/>
      <use x="244.726562" xlink:href="#DejaVuSans-76"/>
      <use x="303.90625" xlink:href="#DejaVuSans-69"/>
      <use x="331.689453" xlink:href="#DejaVuSans-61"/>
      <use x="392.96875" xlink:href="#DejaVuSans-20"/>
      <use x="424.755859" xlink:href="#DejaVuSans-47"/>
      <use x="502.246094" xlink:href="#DejaVuSans-72"/>
      <use x="543.359375" xlink:href="#DejaVuSans-61"/>
      <use x="604.638672" xlink:href="#DejaVuSans-70"/>
      <use x="668.115234" xlink:href="#DejaVuSans-68"/>
      <use x="731.494141" xlink:href="#DejaVuSans-53"/>
      <use x="794.970703" xlink:href="#DejaVuSans-61"/>
      <use x="856.25" xlink:href="#DejaVuSans-69"/>
      <use x="884.033203" xlink:href="#DejaVuSans-6e"/>
      <use x="947.412109" xlink:href="#DejaVuSans-74"/>
      <use x="986.621094" xlink:href="#DejaVuSans-20"/>
      <use x="1018.408203" xlink:href="#DejaVuSans-62"/>
      <use x="1081.884766" xlink:href="#DejaVuSans-61"/>
      <use x="1143.164062" xlink:href="#DejaVuSans-73"/>
      <use x="1195.263672" xlink:href="#DejaVuSans-65"/>
      <use x="1256.787109" xlink:href="#DejaVuSans-64"/>
      <use x="1320.263672" xlink:href="#DejaVuSans-20"/>
      <use x="1352.050781" xlink:href="#DejaVuSans-73"/>
      <use x="1404.150391" xlink:href="#DejaVuSans-61"/>
      <use x="1465.429688" xlink:href="#DejaVuSans-6d"/>
      <use x="1562.841797" xlink:href="#DejaVuSans-70"/>
      <use x="1626.318359" xlink:href="#DejaVuSans-6c"/>
      <use x="1654.101562" xlink:href="#DejaVuSans-69"/>
      <use x="1681.884766" xlink:href="#DejaVuSans-6e"/>
      <use x="1745.263672" xlink:href="#DejaVuSans-67"/>
     </g>
    </g>
   </g>
  </g>
 </g>
 <defs>
  <clipPath id="pd4f894c3d3">
   <rect height="260.928" width="357.12" x="57.6" y="41.472"/>
  </clipPath>
 </defs>
</svg>
